<svg xmlns="http://www.w3.org/2000/svg" viewBox="0 0 462 337"><title>MT Studio — butterflies</title><path fill="#A320FF" fill-rule="evenodd" d="M211,213L212,212L213,212L214,213L213,214L212,214ZM135,209L136,208L137,209L136,210ZM136,208L137,207L138,208L137,209ZM228,198L229,197L230,198L229,199ZM207,188L208,189L208,194L206,196L205,196L204,195L204,194L205,193L205,189L206,188ZM166,184L166,185L163,188L163,189L156,196L155,196L151,200L150,200L150,201L149,202L148,202L147,203L144,204L144,205L143,206L142,206L140,208L138,208L137,207L141,203L142,203L144,201L145,201L145,200L146,199L147,199L149,197L150,197L160,187L161,187L165,183ZM165,183L166,182L167,183L166,184ZM166,182L167,181L168,182L167,183ZM97,174L98,175L98,177L97,178L97,179L96,180L95,180L94,179L94,177ZM93,169L94,168L95,168L96,169L96,171L95,172L94,172L93,171ZM142,168L140,170L139,170L137,172L136,172L134,174L133,174L129,178L128,178L128,179L127,180L126,180L117,188L114,188L113,187L113,184L114,183L114,182L123,175L124,175L125,174L126,174L127,173L128,173L129,172L130,172L131,171L132,171L133,170L134,170L139,167L141,167ZM223,166L224,165L225,165L226,166L231,166L232,167L233,167L234,168L234,169L232,171L229,172L228,171L227,171L223,167ZM116,157L116,155L118,153L119,153L120,152L122,152L123,151L127,151L128,150L147,150L148,151L147,152L146,152L145,153L143,153L142,154L137,154L134,156L130,156L129,157L127,157L126,158L123,158L122,159L119,159ZM205,135L208,137L208,139L207,140L207,141L206,142L206,144L204,147L204,150L202,153L202,155L201,156L201,157L200,158L199,161L196,164L195,163L195,156L194,156L193,155L193,154L195,152L197,152L196,149L201,145L201,141L202,140L202,138ZM192,119L194,122L194,123L193,124L191,122L191,120ZM160,118L161,117L162,118L161,119ZM275,116L275,117L272,120L271,120L267,124L266,124L265,125L262,126L260,128L258,128L256,130L253,130L250,132L247,132L246,133L244,133L243,134L240,134L239,135L236,135L235,136L234,136L233,135L233,134L234,133L237,132L239,130L240,130L241,129L242,129L243,128L244,128L249,125L251,125L254,123L256,123L257,122L258,122L263,119L265,119L266,118L267,118L272,115L274,115ZM251,111L252,110L253,111L252,112ZM303,103L304,104L304,105L302,107L302,108L300,110L300,111L299,112L298,112L298,113L296,115L296,116L292,120L291,119L291,118L293,116L293,115L295,113L295,112L298,109L298,108ZM165,104L166,103L167,104L166,105ZM117,90L121,86L122,86L123,87L124,87L125,88L128,89L130,91L131,91L132,92L135,93L138,96L139,96L142,99L143,99L147,103L148,103L154,109L154,110L161,117L160,118L158,118L153,114L152,114L149,112L147,112L145,110L143,110L140,108L138,108L137,107L136,107L135,106L134,106L133,105L132,105L131,104L130,104L129,103L126,102L118,94L118,93L117,92ZM294,81L294,83L285,92L284,92L282,94L281,94L279,96L278,96L276,98L275,98L273,100L272,100L267,104L264,105L262,107L261,107L260,108L259,108L254,111L253,111L252,110L255,107L256,107L259,104L260,104L263,101L264,101L271,95L272,95L274,93L275,93L282,87L283,87L285,85L286,85L291,81L292,81L293,80ZM168,65L170,67L170,68L172,70L172,71L176,76L176,78L178,80L178,82L179,83L179,84L182,89L182,91L184,93L184,96L186,98L186,100L188,102L188,105L190,107L190,110L192,113L192,119L191,120L189,117L189,114L187,111L187,108L185,105L185,103L183,100L183,98L181,96L181,95L180,94L180,93L177,88L177,86L176,85L176,84L175,83L175,82L174,81L174,80L173,79L173,78L172,77L172,76L171,75L171,74L170,73L170,72L167,67L167,66ZM166,65L167,64L168,65L167,66ZM165,64L166,63L167,64L166,65ZM164,62L165,61L166,62L165,63ZM163,61L164,60L165,61L164,62ZM162,59L163,58L164,59L163,60ZM112,48L113,48L114,49L115,49L117,51L120,52L122,54L123,54L126,57L127,57L129,59L130,59L134,63L135,63L136,64L136,65L137,65L142,70L142,71L144,73L145,73L146,74L146,75L147,75L148,76L148,77L156,86L156,87L158,89L158,90L160,92L160,93L162,95L162,96L166,101L166,103L165,104L159,98L159,97L152,90L151,90L139,78L138,78L137,77L137,76L136,76L127,68L126,68L124,66L123,66L121,64L120,64L118,62L117,62L112,58L112,57L111,56L111,54L110,53L110,50ZM80,33L81,33L82,34L82,38L83,39L83,41L84,42L84,44L86,47L86,50L88,53L88,56L89,57L89,59L90,60L90,67L89,68L88,68L87,67L87,65L86,64L86,61L85,60L85,58L84,57L84,55L83,54L83,50L82,49L82,47L81,46L81,40L79,37L79,34ZM335,40L334,40L333,39L331,39L330,40L328,40L327,41L324,41L323,42L321,42L316,45L314,45L313,46L311,46L309,48L307,48L305,50L304,50L303,51L302,51L301,52L300,52L299,53L296,54L294,56L293,56L291,58L290,58L288,60L287,60L285,62L284,62L282,64L281,64L279,66L276,67L273,70L272,70L268,74L267,74L263,78L262,78L259,81L258,81L255,84L254,84L254,85L253,86L252,86L252,87L240,99L240,100L232,108L232,109L228,113L228,114L222,120L222,121L220,123L220,124L216,128L216,129L211,134L209,134L208,133L208,132L207,131L207,126L208,125L209,125L209,124L211,122L211,120L213,118L213,116L215,114L215,113L217,111L217,110L219,108L219,107L221,105L221,104L225,100L225,99L227,97L227,96L231,92L231,91L241,81L242,81L243,80L245,80L245,78L244,78L243,77L242,78L241,78L227,92L227,93L224,96L224,97L222,99L222,100L220,102L220,103L216,107L216,108L214,110L214,111L212,113L212,114L210,116L210,117L209,118L207,118L205,116L205,110L204,109L204,105L203,104L203,97L202,96L202,94L201,93L201,88L199,85L199,82L197,79L197,77L195,74L195,72L194,71L194,70L191,65L191,61L190,60L190,59L187,56L187,55L185,53L182,53L180,56L181,57L182,60L183,61L184,61L189,66L190,69L192,71L192,72L194,75L194,77L196,79L196,82L197,83L197,85L198,86L198,91L200,94L200,101L201,102L201,105L202,106L202,115L203,116L203,118L202,119L202,125L204,125L205,126L204,127L204,128L202,130L202,131L200,133L200,134L199,135L198,135L197,134L197,132L196,131L196,122L195,121L195,117L194,116L194,114L193,113L193,110L191,107L191,104L189,101L189,99L187,96L187,94L185,92L185,90L183,88L183,86L181,83L181,81L179,79L179,77L177,75L177,73L175,71L175,70L173,68L173,67L171,65L171,64L169,62L169,61L167,59L167,58L165,56L165,55L161,51L161,50L153,42L153,41L152,40L151,40L141,30L140,30L135,25L134,25L131,22L129,22L126,20L123,20L122,19L120,19L117,16L116,16L114,14L113,14L112,13L111,13L106,10L104,10L101,8L98,8L97,7L95,7L94,6L90,6L88,8L87,8L86,9L84,9L83,8L82,9L81,9L80,10L80,12L75,17L75,22L76,23L76,36L77,37L77,39L78,40L78,45L80,48L80,53L82,56L82,60L84,63L84,66L86,68L86,69L88,72L88,76L89,77L89,81L90,82L90,88L89,89L89,91L90,92L90,96L91,97L91,99L92,100L92,105L94,108L94,111L95,112L96,112L98,110L99,110L104,115L104,116L106,118L107,118L108,119L109,119L114,122L116,122L117,123L119,123L120,124L122,124L123,125L125,125L126,126L128,126L129,127L131,127L132,128L137,128L138,129L140,129L142,131L144,131L145,132L146,132L147,133L149,133L154,136L156,136L161,139L163,139L164,140L167,141L169,143L168,144L165,144L162,142L159,142L158,141L156,141L155,140L150,140L149,139L146,139L145,138L140,138L139,137L137,137L136,136L129,136L128,135L126,135L125,134L114,134L113,135L112,135L111,136L109,136L108,137L107,137L106,138L105,138L104,139L101,140L99,142L98,142L92,148L92,150L90,153L90,156L89,157L88,160L90,163L90,177L91,178L91,182L92,183L92,188L93,189L94,192L97,195L98,195L99,196L99,199L96,202L95,202L91,206L90,206L87,209L86,209L85,210L84,210L82,212L79,213L79,214L78,215L75,215L74,216L75,215L77,215L78,216L78,217L76,220L75,220L73,222L72,222L71,223L70,223L69,224L68,224L67,225L64,226L62,228L61,228L55,234L54,234L49,238L48,238L47,239L44,240L42,242L41,242L39,244L38,244L34,248L33,248L26,255L27,256L26,257L26,258L22,262L23,265L24,266L27,266L28,265L30,265L31,264L32,264L34,262L35,262L36,261L37,261L39,259L40,259L44,255L45,255L53,247L53,246L55,244L55,243L60,238L61,238L68,232L69,232L70,231L71,231L72,230L73,230L74,229L75,229L76,228L77,228L78,227L79,227L80,226L83,225L85,223L86,223L88,221L89,221L92,218L93,218L96,215L97,215L100,212L101,212L104,209L105,209L108,207L110,209L111,209L112,210L112,211L115,214L115,215L117,217L127,217L130,215L132,215L133,214L134,214L136,212L139,211L141,209L142,209L144,207L145,207L147,205L148,205L150,203L151,203L158,197L159,197L159,196L160,195L161,195L173,183L173,182L175,180L175,179L178,176L179,173L181,171L182,172L182,175L180,177L180,178L177,183L177,185L175,188L175,189L176,190L177,190L179,188L179,187L181,185L181,184L183,182L183,181L185,179L185,178L187,176L187,175L189,173L189,172L194,167L195,167L196,168L196,169L195,170L195,173L194,174L194,176L193,177L193,179L192,180L192,183L190,186L190,188L189,189L189,191L188,192L188,195L187,196L187,199L186,200L186,204L185,205L185,207L184,208L184,212L186,215L186,217L192,223L193,223L194,224L200,224L201,223L202,223L204,221L205,221L206,220L209,219L211,217L212,217L214,215L215,215L219,211L220,211L231,200L231,199L233,197L233,196L234,195L231,198L230,198L229,197L229,195L230,194L230,190L232,188L233,188L234,187L235,187L237,185L238,185L242,181L245,182L249,178L249,177L251,175L252,172L255,169L257,169L258,170L271,170L272,171L278,171L279,172L289,172L290,171L291,171L291,170L296,165L296,163L295,162L290,162L287,164L262,164L261,163L258,163L257,162L256,162L250,156L247,156L244,153L245,152L247,152L248,151L253,151L254,150L257,150L258,149L261,149L262,148L264,148L265,147L266,147L267,146L268,146L273,143L275,143L276,142L279,141L279,140L285,134L285,133L289,129L289,128L291,126L291,125L293,123L293,122L297,118L297,117L299,115L299,114L300,113L301,113L301,112L302,111L303,108L307,103L307,101L311,96L311,94L312,93L312,91L313,90L313,88L315,86L315,84L317,82L318,79L322,75L323,76L323,77L322,78L322,80L320,82L320,84L318,86L318,87L317,88L318,87L319,87L319,86L321,84L321,82L323,80L323,79L327,74L327,73L328,72L329,69L331,67L331,65L333,62L333,60L334,59L334,57L335,56L335,54L336,53L336,49L334,46L334,44L335,43Z"/><path fill="#FFFFFF" fill-rule="evenodd" d="M331,287L332,288L332,295L331,296L331,298L330,299L328,299L327,298L327,293L329,291L329,289ZM325,286L326,287L326,289L325,290L322,291L321,290L321,288L323,286ZM370,281L371,280L372,280L373,281L374,281L376,283L377,283L379,285L380,285L382,287L383,287L388,292L388,294L387,295L386,295L381,290L380,290L378,288L377,288ZM324,278L324,280L319,283L316,283L314,281L316,279L317,279L318,278L320,278L321,277L323,277ZM375,275L376,274L380,274L381,275L384,275L385,276L386,276L387,277L388,277L389,278L392,279L394,281L395,281L397,284L397,286L395,288L393,288L392,287L391,287L389,285L388,285L385,282L384,282L379,278L377,278ZM406,272L406,270L407,269L409,269L410,270L410,271L408,273L407,273ZM310,270L311,269L312,270L312,271L311,272L310,271ZM368,265L369,264L392,264L394,266L394,268L392,270L389,270L388,269L384,269L383,268L372,268L371,267L369,267L368,266ZM292,246L293,245L297,245L298,246L300,246L301,247L303,247L306,249L308,249L311,251L313,251L315,253L317,253L320,256L320,257L319,258L318,258L317,257L315,257L314,256L310,256L307,254L304,254L303,253L301,253L300,252L297,252L292,247ZM281,225L282,224L284,224L286,226L287,226L290,229L293,230L296,233L297,233L299,235L300,235L304,239L305,239L307,241L308,241L310,243L310,244L309,245L308,245L307,244L306,244L304,242L303,242L302,241L299,240L294,236L291,235L289,233L288,233L281,226ZM394,224L394,228L392,230L392,231L391,232L390,232L385,236L383,236L381,238L380,238L379,239L378,239L377,240L376,240L375,241L372,242L367,246L366,246L365,245L365,244L376,233L377,233L383,227L384,227L386,225L387,225L389,223L390,223L391,222ZM355,205L354,205L354,206L350,211L351,211L351,210L352,209L353,209L355,207ZM369,203L370,202L371,203L371,204L370,205L369,204ZM399,196L400,197L400,200L399,201L399,202L396,205L396,206L386,216L385,216L375,226L374,226L374,227L373,228L372,228L372,229L371,230L370,230L370,231L369,232L368,232L368,233L367,234L366,234L366,235L365,236L364,236L363,235L363,234L365,232L365,231L367,229L367,228L369,226L369,225L371,223L371,222L373,220L373,219L377,215L377,214L388,203L389,203L393,199L394,199L397,196ZM419,175L412,170L409,172L406,172L405,173L404,173L403,174L402,174L401,175L400,175L399,176L398,176L397,177L394,178L392,180L391,180L387,184L386,184L372,198L372,199L366,205L366,206L364,208L364,209L363,210L362,210L362,212L358,217L359,217L359,216L361,214L361,213L363,211L363,210L364,209L365,209L365,207L366,206L367,206L367,205L368,204L369,204L370,205L370,206L368,208L368,209L364,214L364,215L363,216L362,219L360,221L360,223L358,225L358,227L357,228L356,228L356,230L354,232L353,231L353,229L353,231L354,232L354,234L352,236L351,235L351,234L352,237L350,239L349,238L349,242L348,243L347,243L347,249L346,250L346,254L344,257L344,260L346,262L346,265L347,266L347,268L348,269L346,271L345,271L344,270L342,270L341,271L340,271L339,270L339,267L341,265L341,257L340,256L340,251L339,250L339,247L340,246L340,242L341,241L341,235L340,236L340,242L339,243L339,244L338,245L338,247L337,248L336,248L335,247L335,246L334,246L332,243L332,244L334,246L334,249L335,250L335,251L336,252L336,254L337,255L337,259L336,260L331,255L331,254L329,252L329,251L327,249L327,248L322,243L322,242L315,235L315,234L303,222L302,222L301,221L301,220L300,220L296,216L295,216L293,214L290,213L288,211L287,211L286,210L285,210L284,209L283,209L282,208L281,208L280,207L277,206L275,204L273,204L272,203L271,203L266,200L264,200L261,198L257,198L255,201L255,205L256,206L256,209L257,210L257,212L258,213L258,215L260,217L261,220L263,222L264,222L265,223L265,224L267,226L267,227L268,228L268,229L270,231L270,232L271,233L271,234L272,235L273,238L276,241L277,241L278,242L278,243L281,246L281,247L282,248L282,252L284,254L285,257L288,260L288,261L293,265L298,265L301,267L305,267L306,268L306,269L303,272L303,275L301,278L295,278L294,279L284,279L283,278L279,278L278,279L278,281L280,283L283,283L286,281L298,281L299,280L302,280L304,282L304,284L311,291L318,291L320,293L320,298L319,299L319,301L320,302L320,304L324,308L324,309L330,315L331,315L333,317L335,317L336,318L342,318L343,317L344,317L346,315L346,314L347,313L347,311L348,310L348,301L347,300L347,295L346,294L346,292L345,291L345,288L344,287L344,285L343,284L343,280L344,279L345,279L346,280L346,281L347,281L347,278L348,277L350,279L350,281L352,284L352,287L354,289L354,291L355,292L355,287L354,286L354,284L355,283L361,289L361,290L362,289L364,291L365,291L366,292L366,293L367,293L378,304L378,305L380,307L381,307L382,308L384,308L385,309L387,309L388,310L389,310L391,307L394,306L396,304L396,303L398,301L399,301L400,302L401,302L403,304L404,304L409,307L411,307L414,309L416,309L417,310L421,310L422,311L427,311L428,312L431,313L433,315L435,315L436,316L438,316L439,317L442,317L443,318L444,318L445,317L445,316L447,314L446,313L446,312L441,308L427,308L426,307L423,307L422,306L420,306L419,305L418,305L417,304L416,304L415,303L412,302L410,300L407,299L405,297L405,294L407,292L407,290L408,289L408,283L409,282L409,276L411,273L411,269L410,268L410,267L409,266L409,265L408,264L407,261L404,258L403,258L400,256L397,256L396,255L389,255L388,256L380,256L379,257L377,257L376,258L373,258L372,259L370,259L369,260L364,260L363,259L368,255L370,255L371,254L372,254L377,251L379,251L380,250L382,250L383,249L385,249L388,247L390,247L393,245L395,245L396,244L397,244L399,242L400,242L403,240L407,240L407,239L408,238L408,236L409,235L409,230L410,229L410,221L411,220L411,213L410,212L410,210L409,209L409,206L411,203L411,200L413,197L413,195L415,192L415,190L418,185L418,180L419,179Z"/></svg>