# Blender 4.5.10 LTS
# www.blender.org
mtllib feminino_teef_09.mtl
o hash_E597BBC0.model
v 0.037109 0.299805 0.184082
v -0.033691 0.301270 0.182129
v -0.033691 0.300781 0.179199
v 0.037109 0.299316 0.181152
v 0.037109 0.299805 0.184082
v 0.037109 0.299316 0.181152
v 0.040527 0.300781 0.180176
v 0.040527 0.301270 0.183594
v -0.034668 0.402344 0.137695
v -0.034668 0.402832 0.141113
v 0.042480 0.400879 0.144531
v 0.042480 0.400391 0.141602
v -0.038574 0.307129 0.180176
v -0.034668 0.402832 0.141113
v -0.034668 0.402344 0.137695
v -0.038086 0.306641 0.177246
v 0.041992 0.304199 0.182617
v 0.041992 0.303711 0.179199
v 0.042480 0.400391 0.141602
v 0.042480 0.400879 0.144531
v -0.037109 0.303223 0.181641
v -0.038574 0.307129 0.180176
v -0.038086 0.306641 0.177246
v -0.037109 0.302734 0.178223
v 0.040527 0.301270 0.183594
v 0.040527 0.300781 0.180176
v 0.041992 0.303711 0.179199
v 0.041992 0.304199 0.182617
v -0.033691 0.301270 0.182129
v -0.037109 0.303223 0.181641
v -0.037109 0.302734 0.178223
v -0.033691 0.300781 0.179199
v 0.081543 0.546387 0.018555
v 0.076660 0.547852 0.018555
v 0.073242 0.543945 0.030762
v 0.078125 0.542480 0.030762
v -0.081055 0.541504 0.037109
v -0.082520 0.545410 0.026367
v -0.086426 0.541992 0.024902
v -0.084961 0.538574 0.035645
v -0.034668 0.402344 0.137695
v 0.042480 0.400391 0.141602
v 0.041992 0.303711 0.179199
v -0.038086 0.306641 0.177246
v -0.037109 0.302734 0.178223
v -0.038086 0.306641 0.177246
v 0.041992 0.303711 0.179199
v 0.040527 0.300781 0.180176
v -0.037109 0.302734 0.178223
v 0.040527 0.300781 0.180176
v 0.037109 0.299316 0.181152
v -0.033691 0.300781 0.179199
v 0.061035 0.511719 0.060059
v 0.056152 0.498047 0.066895
v 0.060547 0.496582 0.066895
v 0.065430 0.509766 0.059570
v 0.065918 0.525391 0.052246
v 0.070801 0.524414 0.052246
v 0.048828 0.465332 0.086426
v 0.046875 0.456055 0.093262
v 0.051758 0.454590 0.093750
v 0.053711 0.464355 0.087402
v 0.051270 0.475586 0.080078
v 0.056152 0.474609 0.081055
v -0.033691 0.301270 0.182129
v 0.037109 0.299805 0.184082
v 0.040527 0.301270 0.183594
v -0.037109 0.303223 0.181641
v -0.038574 0.307129 0.180176
v 0.041992 0.304199 0.182617
v 0.042480 0.400879 0.144531
v -0.034668 0.402832 0.141113
v 0.045410 0.447266 0.100586
v 0.042969 0.438477 0.108398
v 0.047852 0.437012 0.108398
v 0.050293 0.445801 0.100586
v 0.051758 0.454590 0.093750
v 0.046875 0.456055 0.093262
v 0.040527 0.427734 0.118652
v 0.038574 0.416504 0.128418
v 0.043457 0.415039 0.129395
v 0.044922 0.426270 0.118652
v 0.047852 0.437012 0.108398
v 0.042969 0.438477 0.108398
v 0.037109 0.408203 0.135254
v 0.035645 0.399902 0.142090
v 0.040039 0.398438 0.143066
v 0.041992 0.406738 0.135742
v 0.043457 0.415039 0.129395
v 0.038574 0.416504 0.128418
v 0.070312 0.536133 0.042969
v 0.065918 0.525391 0.052246
v 0.070801 0.524414 0.052246
v 0.075195 0.535156 0.042969
v 0.078125 0.542480 0.030762
v 0.073242 0.543945 0.030762
v 0.053223 0.486328 0.073730
v 0.051270 0.475586 0.080078
v 0.056152 0.474609 0.081055
v 0.057617 0.484375 0.073730
v 0.060547 0.496582 0.066895
v 0.056152 0.498047 0.066895
v -0.045410 0.446777 0.103027
v -0.042480 0.437500 0.108887
v -0.037598 0.439453 0.108887
v -0.041016 0.448242 0.102539
v -0.044434 0.456543 0.097168
v -0.049316 0.455566 0.097168
v -0.039551 0.428711 0.115723
v -0.035156 0.418457 0.125488
v -0.030273 0.419922 0.125000
v -0.034668 0.430176 0.115723
v -0.037598 0.439453 0.108887
v -0.042480 0.437500 0.108887
v -0.032715 0.410156 0.133301
v -0.030273 0.401367 0.140625
v -0.025391 0.401367 0.140625
v -0.027832 0.411621 0.132812
v -0.030273 0.419922 0.125000
v -0.035156 0.418457 0.125488
v -0.083008 0.532227 0.046387
v -0.078125 0.523438 0.053711
v -0.074219 0.525391 0.054688
v -0.079102 0.535645 0.047852
v -0.081055 0.541504 0.037109
v -0.084961 0.538574 0.035645
v -0.073242 0.512695 0.060059
v -0.067383 0.500000 0.066406
v -0.062500 0.501465 0.065918
v -0.068359 0.513672 0.059570
v -0.074219 0.525391 0.054688
v -0.078125 0.523438 0.053711
v -0.061523 0.487305 0.074219
v -0.056641 0.475098 0.082520
v -0.051758 0.476562 0.081543
v -0.056641 0.488281 0.073730
v -0.062500 0.501465 0.065918
v -0.067383 0.500000 0.066406
v -0.052246 0.464355 0.090332
v -0.049316 0.455566 0.097168
v -0.044434 0.456543 0.097168
v -0.047363 0.465820 0.089844
v -0.051758 0.476562 0.081543
v -0.056641 0.475098 0.082520
vn -0.0273 -0.9834 0.1795
vn 0.3866 -0.9061 0.1718
vn 0.3867 -0.9061 0.1718
vn 0.0351 0.9831 -0.1794
vn 0.0351 0.9831 -0.1795
vn -0.9990 0.0234 -0.0390
vn 0.9999 -0.0078 -0.0078
vn -0.9420 -0.3322 0.0469
vn -0.9420 -0.3323 0.0469
vn 0.9204 -0.3822 0.0819
vn -0.5111 -0.8466 0.1483
vn 0.2426 0.9039 0.3522
vn 0.2226 0.8592 0.4608
vn 0.2264 0.8665 0.4449
vn -0.6762 0.6293 0.3830
vn -0.6764 0.6686 0.3089
vn -0.6765 0.6335 0.3754
vn 0.0234 -0.3706 -0.9285
vn 0.0156 -0.3126 -0.9497
vn 0.0156 -0.3127 -0.9497
vn 0.0117 -0.4299 -0.9028
vn 0.1913 0.4059 0.8937
vn 0.2152 0.4226 0.8804
vn 0.2148 0.4258 0.8789
vn 0.1371 0.5091 0.8498
vn 0.1366 0.5268 0.8390
vn 0.0156 0.5474 0.8367
vn 0.0781 0.5780 0.8123
vn 0.0820 0.5778 0.8120
vn 0.0195 0.5474 0.8367
vn 0.0352 0.5398 0.8410
vn 0.0312 0.5381 0.8423
vn -0.0117 0.4299 0.9028
vn -0.0156 0.3361 0.9417
vn -0.0156 0.3395 0.9405
vn -0.0195 0.3476 0.9374
vn -0.0234 0.3707 0.9285
vn -0.0234 0.3706 0.9285
vn 0.1405 0.6089 0.7807
vn 0.1793 0.6431 0.7445
vn 0.1798 0.6450 0.7427
vn 0.1406 0.6132 0.7773
vn 0.1682 0.6609 0.7313
vn 0.1173 0.6411 0.7584
vn 0.1094 0.6333 0.7662
vn 0.0781 0.6204 0.7804
vn 0.0781 0.6290 0.7735
vn 0.1598 0.7135 0.6822
vn 0.1370 0.5091 0.8497
vn 0.1366 0.5268 0.8389
vn 0.1682 0.7276 0.6650
vn 0.2264 0.8664 0.4450
vn 0.2226 0.8591 0.4608
vn 0.1408 0.4967 0.8565
vn 0.1326 0.5031 0.8540
vn 0.2149 0.4258 0.8789
vn -0.1091 0.5223 0.8458
vn -0.1251 0.5512 0.8249
vn -0.1247 0.5495 0.8262
vn -0.0936 0.5541 0.8272
vn -0.0938 0.5630 0.8211
vn -0.1366 0.6049 0.7845
vn -0.1446 0.6449 0.7504
vn -0.1247 0.5495 0.8261
vn -0.0860 0.6370 0.7660
vn -0.0351 0.6200 0.7838
vn -0.0896 0.6391 0.7638
vn -0.1446 0.6449 0.7505
vn -0.5985 0.4850 0.6376
vn -0.3519 0.3598 0.8641
vn -0.3277 0.3589 0.8739
vn -0.5970 0.4838 0.6399
vn -0.6762 0.6293 0.3831
vn -0.0938 0.4105 0.9070
vn -0.0000 0.4813 0.8766
vn -0.0000 0.4843 0.8749
vn -0.0743 0.4224 0.9034
vn -0.3519 0.3597 0.8641
vn -0.0117 0.5265 0.8501
vn -0.0351 0.5705 0.8206
vn -0.0391 0.5704 0.8204
vn -0.0156 0.5310 0.8472
vn -0.0000 0.4813 0.8765
vn -0.0703 0.5941 0.8013
vn -0.0937 0.5541 0.8272
vn -0.0704 0.5941 0.8013
vn -0.0351 0.5705 0.8205
vt 0.370651 0.516052
vt 0.047577 0.519241
vt 0.047577 0.520813
vt 0.370651 0.517624
vt 0.380539 0.524414
vt 0.380539 0.522858
vt 0.008820 0.998779
vt 0.025192 0.977112
vt 0.383545 0.977112
vt 0.383545 0.998779
vt 0.025192 0.544632
vt 0.008820 0.546204
vt 0.383545 0.536850
vt 0.383545 0.538422
vt 0.031464 0.528351
vt 0.031464 0.529907
vt 0.405182 0.763412
vt 0.494614 0.763412
vt 0.494614 0.993439
vt 0.405182 0.993439
vt 0.025192 0.546204
vt 0.494614 0.531860
vt 0.405182 0.531860
s 1
usemtl teef_diff_003_a_uni
f 1/1/1 2/2/1 3/3/1
f 3/3/1 4/4/1 1/1/1
f 5/1/2 6/4/2 7/5/3
f 7/5/3 8/6/2 5/1/2
f 9/7/4 10/8/5 11/9/4
f 11/9/4 12/10/4 9/7/4
f 13/11/6 14/8/6 15/7/6
f 15/7/6 16/12/6 13/11/6
f 17/13/7 18/14/7 19/10/7
f 19/10/7 20/9/7 17/13/7
f 21/15/8 22/11/9 23/12/8
f 23/12/8 24/16/8 21/15/8
f 25/6/10 26/5/10 27/14/10
f 27/14/10 28/13/10 25/6/10
f 29/2/11 30/15/11 31/16/11
f 31/16/11 32/3/11 29/2/11
f 33/17/12 34/18/12 35/19/13
f 35/19/13 36/20/14 33/17/12
f 37/20/15 38/17/16 39/18/16
f 39/18/16 40/19/17 37/20/15
f 41/7/18 42/7/18 43/12/18
f 43/12/18 44/12/18 41/7/18
f 45/16/19 46/12/19 47/21/20
f 47/21/20 48/16/20 45/16/19
f 49/16/21 50/16/21 51/3/21
f 51/3/21 52/3/21 49/16/21
f 53/18/22 54/19/23 55/20/24
f 55/20/24 56/17/22 53/18/22
f 57/22/25 53/18/22 56/17/22
f 56/17/22 58/23/26 57/22/25
f 59/18/27 60/19/28 61/20/29
f 61/20/29 62/17/30 59/18/27
f 63/22/31 59/18/27 62/17/30
f 62/17/30 64/23/32 63/22/31
f 65/2/33 66/1/33 67/6/34
f 67/6/34 68/15/35 65/2/33
f 69/11/36 68/15/35 67/6/34
f 67/6/34 70/13/36 69/11/36
f 69/11/36 70/13/36 71/9/37
f 71/9/37 72/8/38 69/11/36
f 73/18/39 74/19/40 75/20/41
f 75/20/41 76/17/42 73/18/39
f 73/18/39 76/17/42 77/23/29
f 77/23/29 78/22/28 73/18/39
f 79/18/43 80/19/44 81/20/45
f 81/20/45 82/17/43 79/18/43
f 79/18/43 82/17/43 83/23/41
f 83/23/41 84/22/40 79/18/43
f 85/18/46 86/19/47 87/20/47
f 87/20/47 88/17/46 85/18/46
f 85/18/46 88/17/46 89/23/45
f 89/23/45 90/22/44 85/18/46
f 91/18/48 92/19/49 93/20/50
f 93/20/50 94/17/51 91/18/48
f 91/18/48 94/17/51 95/23/52
f 95/23/52 96/22/53 91/18/48
f 97/18/54 98/19/31 99/20/32
f 99/20/32 100/17/55 97/18/54
f 97/18/54 100/17/55 101/23/56
f 101/23/56 102/22/23 97/18/54
f 103/18/57 104/19/58 105/20/59
f 105/20/59 106/17/57 103/18/57
f 103/18/57 106/17/57 107/23/60
f 107/23/60 108/22/61 103/18/57
f 109/18/62 110/19/63 111/20/63
f 111/20/63 112/17/62 109/18/62
f 109/18/62 112/17/62 113/23/64
f 113/23/64 114/22/58 109/18/62
f 115/18/65 116/19/66 117/20/66
f 117/20/66 118/17/67 115/18/65
f 115/18/65 118/17/67 119/23/68
f 119/23/68 120/22/68 115/18/65
f 121/18/69 122/19/70 123/20/71
f 123/20/71 124/17/72 121/18/69
f 121/18/69 124/17/72 125/23/73
f 125/23/73 126/22/17 121/18/69
f 127/18/74 128/19/75 129/20/76
f 129/20/76 130/17/77 127/18/74
f 127/18/74 130/17/77 131/23/71
f 131/23/71 132/22/78 127/18/74
f 133/18/79 134/19/80 135/20/81
f 135/20/81 136/17/82 133/18/79
f 133/18/79 136/17/82 137/23/76
f 137/23/76 138/22/83 133/18/79
f 139/18/84 140/19/61 141/20/85
f 141/20/85 142/17/86 139/18/84
f 139/18/84 142/17/86 143/23/81
f 143/23/81 144/22/87 139/18/84
