# Blender 4.5.10 LTS
# www.blender.org
mtllib feminino_teef_06.mtl
o hash_5677568D.model
v 0.037109 0.299805 0.184082
v -0.033691 0.301270 0.182129
v -0.033691 0.300781 0.179199
v 0.037109 0.299316 0.181152
v 0.037109 0.299805 0.184082
v 0.037109 0.299316 0.181152
v 0.040527 0.300781 0.180176
v 0.040527 0.301270 0.183594
v -0.034668 0.402344 0.137695
v -0.034668 0.402832 0.141113
v 0.042480 0.400879 0.144531
v 0.042480 0.400391 0.141602
v -0.038574 0.307129 0.180176
v -0.034668 0.402832 0.141113
v -0.034668 0.402344 0.137695
v -0.038086 0.306641 0.177246
v 0.041992 0.304199 0.182617
v 0.041992 0.303711 0.179199
v 0.042480 0.400391 0.141602
v 0.042480 0.400879 0.144531
v -0.037109 0.303223 0.181641
v -0.038574 0.307129 0.180176
v -0.038086 0.306641 0.177246
v -0.037109 0.302734 0.178223
v 0.040527 0.301270 0.183594
v 0.040527 0.300781 0.180176
v 0.041992 0.303711 0.179199
v 0.041992 0.304199 0.182617
v -0.033691 0.301270 0.182129
v -0.037109 0.303223 0.181641
v -0.037109 0.302734 0.178223
v -0.033691 0.300781 0.179199
v 0.081543 0.546387 0.018555
v 0.076660 0.547852 0.018555
v 0.073242 0.543945 0.030762
v 0.078125 0.542480 0.030762
v -0.081055 0.541504 0.037109
v -0.082520 0.545410 0.026367
v -0.086426 0.541992 0.024902
v -0.084961 0.538574 0.035645
v -0.034668 0.402344 0.137695
v 0.042480 0.400391 0.141602
v 0.041992 0.303711 0.179199
v -0.038086 0.306641 0.177246
v -0.037109 0.302734 0.178223
v -0.038086 0.306641 0.177246
v 0.041992 0.303711 0.179199
v 0.040527 0.300781 0.180176
v -0.037109 0.302734 0.178223
v 0.040527 0.300781 0.180176
v 0.037109 0.299316 0.181152
v -0.033691 0.300781 0.179199
v -0.121582 -0.133789 0.120605
v -0.120117 -0.133301 0.117676
v -0.058594 -0.135742 0.146973
v -0.060059 -0.136230 0.149902
v -0.055664 -0.134277 0.148438
v -0.056641 -0.134766 0.150879
v -0.060059 -0.136230 0.149902
v -0.058594 -0.135742 0.146973
v -0.052246 -0.031738 0.150879
v -0.050781 -0.031250 0.145020
v -0.121582 -0.028320 0.114746
v -0.123047 -0.029297 0.121094
v -0.124512 -0.127930 0.115723
v -0.125977 -0.128418 0.122070
v -0.123047 -0.029297 0.121094
v -0.121582 -0.028320 0.114746
v -0.052246 -0.031738 0.150879
v -0.055664 -0.131836 0.154785
v -0.054199 -0.131348 0.148926
v -0.050781 -0.031250 0.145020
v -0.124512 -0.131836 0.119141
v -0.125977 -0.128418 0.122070
v -0.124512 -0.127930 0.115723
v -0.123535 -0.131348 0.116211
v -0.055664 -0.131836 0.154785
v -0.056641 -0.134766 0.150879
v -0.055664 -0.134277 0.148438
v -0.054199 -0.131348 0.148926
v -0.123535 -0.131348 0.116211
v -0.120117 -0.133301 0.117676
v -0.121582 -0.133789 0.120605
v -0.124512 -0.131836 0.119141
v -0.121582 -0.028320 0.114746
v -0.120117 -0.133301 0.117676
v -0.123535 -0.131348 0.116211
v -0.124512 -0.127930 0.115723
v -0.121582 -0.028320 0.114746
v -0.050781 -0.031250 0.145020
v -0.054199 -0.131348 0.148926
v -0.120117 -0.133301 0.117676
v -0.055664 -0.134277 0.148438
v -0.058594 -0.135742 0.146973
v -0.120117 -0.133301 0.117676
v -0.054199 -0.131348 0.148926
v -0.121582 -0.133789 0.120605
v -0.060059 -0.136230 0.149902
v -0.056641 -0.134766 0.150879
v -0.124512 -0.131836 0.119141
v -0.055664 -0.131836 0.154785
v -0.125977 -0.128418 0.122070
v -0.052246 -0.031738 0.150879
v -0.123047 -0.029297 0.121094
v 0.061035 0.511719 0.060059
v 0.056152 0.498047 0.066895
v 0.060547 0.496582 0.066895
v 0.065430 0.509766 0.059570
v 0.065918 0.525391 0.052246
v 0.070801 0.524414 0.052246
v 0.048828 0.465332 0.086426
v 0.046875 0.456055 0.093262
v 0.051758 0.454590 0.093750
v 0.053711 0.464355 0.087402
v 0.051270 0.475586 0.080078
v 0.056152 0.474609 0.081055
v -0.033691 0.301270 0.182129
v 0.037109 0.299805 0.184082
v 0.040527 0.301270 0.183594
v -0.037109 0.303223 0.181641
v -0.038574 0.307129 0.180176
v 0.041992 0.304199 0.182617
v 0.042480 0.400879 0.144531
v -0.034668 0.402832 0.141113
v 0.045410 0.447266 0.100586
v 0.042969 0.438477 0.108398
v 0.047852 0.437012 0.108398
v 0.050293 0.445801 0.100586
v 0.051758 0.454590 0.093750
v 0.046875 0.456055 0.093262
v 0.040527 0.427734 0.118652
v 0.038574 0.416504 0.128418
v 0.043457 0.415039 0.129395
v 0.044922 0.426270 0.118652
v 0.047852 0.437012 0.108398
v 0.042969 0.438477 0.108398
v 0.037109 0.408203 0.135254
v 0.035645 0.399902 0.142090
v 0.040039 0.398438 0.143066
v 0.041992 0.406738 0.135742
v 0.043457 0.415039 0.129395
v 0.038574 0.416504 0.128418
v 0.070312 0.536133 0.042969
v 0.065918 0.525391 0.052246
v 0.070801 0.524414 0.052246
v 0.075195 0.535156 0.042969
v 0.078125 0.542480 0.030762
v 0.073242 0.543945 0.030762
v 0.053223 0.486328 0.073730
v 0.051270 0.475586 0.080078
v 0.056152 0.474609 0.081055
v 0.057617 0.484375 0.073730
v 0.060547 0.496582 0.066895
v 0.056152 0.498047 0.066895
v -0.045410 0.446777 0.103027
v -0.042480 0.437500 0.108887
v -0.037598 0.439453 0.108887
v -0.041016 0.448242 0.102539
v -0.044434 0.456543 0.097168
v -0.049316 0.455566 0.097168
v -0.039551 0.428711 0.115723
v -0.035156 0.418457 0.125488
v -0.030273 0.419922 0.125000
v -0.034668 0.430176 0.115723
v -0.037598 0.439453 0.108887
v -0.042480 0.437500 0.108887
v -0.032715 0.410156 0.133301
v -0.030273 0.401367 0.140625
v -0.025391 0.401367 0.140625
v -0.027832 0.411621 0.132812
v -0.030273 0.419922 0.125000
v -0.035156 0.418457 0.125488
v -0.083008 0.532227 0.046387
v -0.078125 0.523438 0.053711
v -0.074219 0.525391 0.054688
v -0.079102 0.535645 0.047852
v -0.081055 0.541504 0.037109
v -0.084961 0.538574 0.035645
v -0.073242 0.512695 0.060059
v -0.067383 0.500000 0.066406
v -0.062500 0.501465 0.065918
v -0.068359 0.513672 0.059570
v -0.074219 0.525391 0.054688
v -0.078125 0.523438 0.053711
v -0.061523 0.487305 0.074219
v -0.056641 0.475098 0.082520
v -0.051758 0.476562 0.081543
v -0.056641 0.488281 0.073730
v -0.062500 0.501465 0.065918
v -0.067383 0.500000 0.066406
v -0.052246 0.464355 0.090332
v -0.049316 0.455566 0.097168
v -0.044434 0.456543 0.097168
v -0.047363 0.465820 0.089844
v -0.051758 0.476562 0.081543
v -0.056641 0.475098 0.082520
v -0.085938 -0.034668 0.137207
v -0.085449 -0.034668 0.137695
v -0.085449 -0.033691 0.137695
v -0.084473 -0.034180 0.138184
v -0.085449 -0.033691 0.137207
v -0.084961 -0.035156 0.137695
v -0.084961 -0.034668 0.136230
v -0.086426 -0.035645 0.137695
v -0.086426 -0.034668 0.136719
v -0.085938 -0.035645 0.136230
v -0.086914 -0.035156 0.136719
v -0.086914 -0.035645 0.135742
v -0.085449 -0.036133 0.136719
v -0.086914 -0.036621 0.136230
v -0.087402 -0.035156 0.135254
v -0.088379 -0.036133 0.135742
v -0.087402 -0.036133 0.136719
v -0.088379 -0.035645 0.136230
v -0.089355 -0.034668 0.135254
v -0.089355 -0.034668 0.136230
v -0.087891 -0.035156 0.136719
v -0.088867 -0.034180 0.136719
v -0.089355 -0.033203 0.136230
v -0.088867 -0.033203 0.136719
v -0.087891 -0.034180 0.136230
v -0.087891 -0.033691 0.136230
v -0.088379 -0.032715 0.136719
v -0.087891 -0.032715 0.136230
v -0.088379 -0.033203 0.135254
v -0.087891 -0.032715 0.135254
v -0.087402 -0.032715 0.136719
v -0.087402 -0.031738 0.135742
v -0.088867 -0.031738 0.135254
v -0.087891 -0.031250 0.135742
v -0.086426 -0.031738 0.135742
v -0.086426 -0.030762 0.136230
v -0.087891 -0.031250 0.136719
v -0.086426 -0.031250 0.137207
v -0.084961 -0.031250 0.136719
v -0.085449 -0.031738 0.137695
v -0.086914 -0.031738 0.137207
v -0.085938 -0.032227 0.137695
v -0.084473 -0.032715 0.137695
v -0.085449 -0.033203 0.137695
v -0.085938 -0.032715 0.136719
v -0.085938 -0.033203 0.137207
v -0.084961 -0.033691 0.136719
v -0.083984 -0.032715 0.137207
v -0.084473 -0.035645 0.137207
v -0.084961 -0.032715 0.136230
v -0.083984 -0.034180 0.137207
v -0.085449 -0.032227 0.136230
v -0.086914 -0.032227 0.136719
v -0.087891 -0.031738 0.136719
v -0.088867 -0.032227 0.136230
v -0.089355 -0.033203 0.135254
v -0.088379 -0.034180 0.135254
v -0.087402 -0.034668 0.136230
v -0.087402 -0.035645 0.137207
v -0.085938 -0.036133 0.137207
vn -0.0273 -0.9834 0.1795
vn 0.3866 -0.9061 0.1718
vn 0.3867 -0.9061 0.1718
vn 0.0351 0.9831 -0.1794
vn 0.0351 0.9831 -0.1795
vn -0.9990 0.0234 -0.0390
vn 0.9999 -0.0078 -0.0078
vn -0.9420 -0.3322 0.0469
vn -0.9420 -0.3323 0.0469
vn 0.9204 -0.3822 0.0819
vn -0.5111 -0.8466 0.1483
vn 0.2426 0.9039 0.3522
vn 0.2226 0.8592 0.4608
vn 0.2264 0.8665 0.4449
vn -0.6762 0.6293 0.3830
vn -0.6764 0.6686 0.3089
vn -0.6765 0.6335 0.3754
vn 0.0234 -0.3706 -0.9285
vn 0.0156 -0.3126 -0.9497
vn 0.0156 -0.3127 -0.9497
vn 0.0117 -0.4299 -0.9028
vn 0.0313 -0.9890 -0.1446
vn 0.4025 -0.9144 0.0430
vn -0.0078 0.9935 0.1134
vn -0.9756 0.0234 -0.2185
vn -0.9755 0.0234 -0.2185
vn 0.9755 -0.0273 0.2185
vn -0.9257 -0.2187 -0.3085
vn -0.9257 -0.2187 -0.3086
vn -0.9257 -0.2188 -0.3086
vn 0.8551 -0.4803 0.1952
vn -0.4140 -0.8476 -0.3320
vn 0.4266 -0.0196 -0.9042
vn 0.4267 -0.0196 -0.9042
vn 0.4059 -0.0352 -0.9132
vn 0.4059 -0.0351 -0.9133
vn 0.4059 -0.0351 -0.9132
vn 0.4216 -0.0468 -0.9056
vn -0.4191 0.1136 0.9008
vn -0.3639 -0.5909 0.7200
vn -0.3784 -0.5384 0.7530
vn -0.4070 -0.2818 0.8689
vn -0.4023 -0.3554 0.8437
vn -0.4059 0.0351 0.9133
vn -0.4059 0.0351 0.9132
vn 0.1913 0.4059 0.8937
vn 0.2152 0.4226 0.8804
vn 0.2148 0.4258 0.8789
vn 0.1371 0.5091 0.8498
vn 0.1366 0.5268 0.8390
vn 0.0156 0.5474 0.8367
vn 0.0781 0.5780 0.8123
vn 0.0820 0.5778 0.8120
vn 0.0195 0.5474 0.8367
vn 0.0352 0.5398 0.8410
vn 0.0312 0.5381 0.8423
vn -0.0117 0.4299 0.9028
vn -0.0156 0.3361 0.9417
vn -0.0156 0.3395 0.9405
vn -0.0195 0.3476 0.9374
vn -0.0234 0.3707 0.9285
vn -0.0234 0.3706 0.9285
vn 0.1405 0.6089 0.7807
vn 0.1793 0.6431 0.7445
vn 0.1798 0.6450 0.7427
vn 0.1406 0.6132 0.7773
vn 0.1682 0.6609 0.7313
vn 0.1173 0.6411 0.7584
vn 0.1094 0.6333 0.7662
vn 0.0781 0.6204 0.7804
vn 0.0781 0.6290 0.7735
vn 0.1598 0.7135 0.6822
vn 0.1370 0.5091 0.8497
vn 0.1366 0.5268 0.8389
vn 0.1682 0.7276 0.6650
vn 0.2264 0.8664 0.4450
vn 0.2226 0.8591 0.4608
vn 0.1408 0.4967 0.8565
vn 0.1326 0.5031 0.8540
vn 0.2149 0.4258 0.8789
vn -0.1091 0.5223 0.8458
vn -0.1251 0.5512 0.8249
vn -0.1247 0.5495 0.8262
vn -0.0936 0.5541 0.8272
vn -0.0938 0.5630 0.8211
vn -0.1366 0.6049 0.7845
vn -0.1446 0.6449 0.7504
vn -0.1247 0.5495 0.8261
vn -0.0860 0.6370 0.7660
vn -0.0351 0.6200 0.7838
vn -0.0896 0.6391 0.7638
vn -0.1446 0.6449 0.7505
vn -0.5985 0.4850 0.6376
vn -0.3519 0.3598 0.8641
vn -0.3277 0.3589 0.8739
vn -0.5970 0.4838 0.6399
vn -0.6762 0.6293 0.3831
vn -0.0938 0.4105 0.9070
vn -0.0000 0.4813 0.8766
vn -0.0000 0.4843 0.8749
vn -0.0743 0.4224 0.9034
vn -0.3519 0.3597 0.8641
vn -0.0117 0.5265 0.8501
vn -0.0351 0.5705 0.8206
vn -0.0391 0.5704 0.8204
vn -0.0156 0.5310 0.8472
vn -0.0000 0.4813 0.8765
vn -0.0703 0.5941 0.8013
vn -0.0937 0.5541 0.8272
vn -0.0704 0.5941 0.8013
vn -0.0351 0.5705 0.8205
vn -0.7734 0.6055 -0.1875
vn -0.4925 0.1055 0.8639
vn -0.5235 0.0235 0.8517
vn 0.4451 -0.0976 0.8902
vn -0.9575 0.1289 -0.2580
vn 0.3087 -0.4532 0.8362
vn 0.2461 0.0938 -0.9647
vn -0.4223 0.1642 0.8915
vn -0.3945 0.9181 -0.0391
vn 0.3049 0.1407 -0.9420
vn 0.0821 0.9855 0.1486
vn 0.3785 0.1522 -0.9130
vn 0.4681 -0.8542 -0.2262
vn 0.0273 -0.9170 -0.3980
vn 0.4455 0.1211 -0.8870
vn -0.3865 -0.7341 -0.5583
vn -0.3323 -0.7388 0.5863
vn -0.6644 -0.5941 0.4534
vn -0.6578 -0.3524 -0.6656
vn -0.8835 -0.2854 0.3714
vn -0.2575 0.1405 0.9560
vn -0.2032 0.0664 0.9769
vn -0.9309 0.0978 0.3520
vn -0.1915 -0.0234 0.9812
vn 0.8172 0.3793 0.4340
vn 0.8798 -0.1290 0.4575
vn -0.2263 -0.1093 0.9679
vn 0.6955 -0.6056 0.3868
vn 0.4994 -0.0196 -0.8662
vn 0.4734 -0.0900 -0.8762
vn 0.3168 -0.9190 0.2347
vn 0.4144 -0.1407 -0.8992
vn -0.5465 0.5621 -0.6207
vn -0.1915 0.8558 -0.4806
vn 0.3395 -0.1483 -0.9288
vn 0.2499 0.9178 -0.3085
vn -0.5077 0.6874 0.5194
vn -0.1524 0.7387 0.6566
vn 0.6633 0.7335 -0.1483
vn 0.1800 0.5908 0.7865
vn -0.3795 -0.1799 0.9075
vn -0.4612 -0.1446 0.8754
vn 0.3987 0.2853 0.8716
vn -0.5121 -0.0704 0.8561
vn -0.6018 -0.7894 -0.1212
vn -0.8951 -0.3792 -0.2345
vn 0.2185 0.0195 -0.9756
vn 0.9337 0.3555 -0.0430
vn 0.8217 -0.5634 -0.0860
vn 0.2302 -0.0585 -0.9714
vn 0.9924 -0.1212 -0.0196
vn 0.2737 -0.1212 -0.9541
vn -0.1604 -0.9857 0.0509
vn -0.2929 -0.1679 0.9413
vn -0.7933 0.4533 0.4064
vn -0.7154 0.1212 -0.6881
vn 0.4911 0.0585 -0.8692
vn 0.5237 0.7894 0.3204
vn -0.3358 0.1757 0.9254
vn 0.0234 -0.6912 0.7223
vt 0.370651 0.516052
vt 0.047577 0.519241
vt 0.047577 0.520813
vt 0.370651 0.517624
vt 0.380539 0.524414
vt 0.380539 0.522858
vt 0.008820 0.998779
vt 0.025192 0.977112
vt 0.383545 0.977112
vt 0.383545 0.998779
vt 0.025192 0.544632
vt 0.008820 0.546204
vt 0.383545 0.536850
vt 0.383545 0.538422
vt 0.031464 0.528351
vt 0.031464 0.529907
vt 0.405182 0.763412
vt 0.494614 0.763412
vt 0.494614 0.993439
vt 0.405182 0.993439
vt 0.025192 0.546204
vt 0.047134 0.003632
vt 0.047134 0.005173
vt 0.363983 0.002029
vt 0.363983 0.000504
vt 0.379349 0.008698
vt 0.379349 0.007172
vt 0.383087 0.471085
vt 0.383087 0.496506
vt 0.009689 0.496506
vt 0.025192 0.471085
vt 0.009689 0.030075
vt 0.025192 0.028534
vt 0.385056 0.020905
vt 0.385056 0.022430
vt 0.031342 0.012558
vt 0.031342 0.014099
vt 0.009689 0.056259
vt 0.383087 0.050720
vt 0.494614 0.531860
vt 0.405182 0.531860
vt 0.305298 0.202332
vt 0.302856 0.200928
vt 0.301361 0.204559
vt 0.298340 0.204086
vt 0.304260 0.204819
vt 0.300476 0.198914
vt 0.304169 0.200714
vt 0.305984 0.198563
vt 0.307434 0.200699
vt 0.307327 0.198303
vt 0.310104 0.200363
vt 0.311279 0.197800
vt 0.305344 0.194641
vt 0.311356 0.193878
vt 0.314972 0.199356
vt 0.316956 0.196243
vt 0.310501 0.194824
vt 0.315674 0.197006
vt 0.320648 0.201065
vt 0.319092 0.201477
vt 0.313507 0.199600
vt 0.315887 0.202728
vt 0.319824 0.207047
vt 0.316406 0.206619
vt 0.314240 0.203568
vt 0.314590 0.206238
vt 0.314896 0.210236
vt 0.313553 0.208725
vt 0.317917 0.206482
vt 0.316391 0.210159
vt 0.311417 0.210358
vt 0.313217 0.212570
vt 0.319107 0.212662
vt 0.314301 0.216324
vt 0.309265 0.213074
vt 0.308289 0.217087
vt 0.313217 0.215607
vt 0.307663 0.216309
vt 0.302689 0.214737
vt 0.302475 0.214127
vt 0.307892 0.213104
vt 0.304260 0.211578
vt 0.299057 0.209656
vt 0.301865 0.208450
vt 0.306259 0.209641
vt 0.304611 0.207489
vt 0.302643 0.204391
vt 0.299011 0.209900
vt 0.300537 0.198303
vt 0.303162 0.208344
vt 0.298218 0.203888
vt 0.305588 0.211517
vt 0.308746 0.210693
vt 0.311783 0.212616
vt 0.317673 0.212219
vt 0.321442 0.207077
vt 0.317398 0.202530
vt 0.312592 0.201416
vt 0.309875 0.198074
vt 0.304932 0.195526
s 1
usemtl teef_diff_000_a_uni
f 1/1/1 2/2/1 3/3/1
f 3/3/1 4/4/1 1/1/1
f 5/1/2 6/4/2 7/5/3
f 7/5/3 8/6/2 5/1/2
f 9/7/4 10/8/5 11/9/4
f 11/9/4 12/10/4 9/7/4
f 13/11/6 14/8/6 15/7/6
f 15/7/6 16/12/6 13/11/6
f 17/13/7 18/14/7 19/10/7
f 19/10/7 20/9/7 17/13/7
f 21/15/8 22/11/9 23/12/8
f 23/12/8 24/16/8 21/15/8
f 25/6/10 26/5/10 27/14/10
f 27/14/10 28/13/10 25/6/10
f 29/2/11 30/15/11 31/16/11
f 31/16/11 32/3/11 29/2/11
f 33/17/12 34/18/12 35/19/13
f 35/19/13 36/20/14 33/17/12
f 37/20/15 38/17/16 39/18/16
f 39/18/16 40/19/17 37/20/15
f 41/7/18 42/7/18 43/12/18
f 43/12/18 44/12/18 41/7/18
f 45/16/19 46/12/19 47/21/20
f 47/21/20 48/16/20 45/16/19
f 49/16/21 50/16/21 51/3/21
f 51/3/21 52/3/21 49/16/21
f 53/22/22 54/23/22 55/24/22
f 55/24/22 56/25/22 53/22/22
f 57/26/23 58/27/23 59/25/23
f 59/25/23 60/24/23 57/26/23
f 61/28/24 62/29/24 63/30/24
f 63/30/24 64/31/24 61/28/24
f 65/32/25 66/33/26 67/31/26
f 67/31/26 68/30/26 65/32/25
f 69/28/27 70/34/27 71/35/27
f 71/35/27 72/29/27 69/28/27
f 73/36/28 74/33/29 75/32/29
f 75/32/29 76/37/30 73/36/28
f 77/34/31 78/27/31 79/26/31
f 79/26/31 80/35/31 77/34/31
f 81/37/32 82/23/32 83/22/32
f 83/22/32 84/36/32 81/37/32
f 85/38/33 86/23/33 87/37/33
f 87/37/33 88/32/34 85/38/33
f 89/38/35 90/39/36 91/35/37
f 91/35/37 92/23/37 89/38/35
f 93/26/38 94/24/38 95/23/38
f 95/23/38 96/35/38 93/26/38
f 97/22/39 98/25/39 99/27/40
f 99/27/40 100/36/41 97/22/39
f 100/36/41 99/27/40 101/34/42
f 101/34/42 102/33/43 100/36/41
f 102/33/43 101/34/42 103/28/44
f 103/28/44 104/31/45 102/33/43
f 105/18/46 106/19/47 107/20/48
f 107/20/48 108/17/46 105/18/46
f 109/40/49 105/18/46 108/17/46
f 108/17/46 110/41/50 109/40/49
f 111/18/51 112/19/52 113/20/53
f 113/20/53 114/17/54 111/18/51
f 115/40/55 111/18/51 114/17/54
f 114/17/54 116/41/56 115/40/55
f 117/2/57 118/1/57 119/6/58
f 119/6/58 120/15/59 117/2/57
f 121/11/60 120/15/59 119/6/58
f 119/6/58 122/13/60 121/11/60
f 121/11/60 122/13/60 123/9/61
f 123/9/61 124/8/62 121/11/60
f 125/18/63 126/19/64 127/20/65
f 127/20/65 128/17/66 125/18/63
f 125/18/63 128/17/66 129/41/53
f 129/41/53 130/40/52 125/18/63
f 131/18/67 132/19/68 133/20/69
f 133/20/69 134/17/67 131/18/67
f 131/18/67 134/17/67 135/41/65
f 135/41/65 136/40/64 131/18/67
f 137/18/70 138/19/71 139/20/71
f 139/20/71 140/17/70 137/18/70
f 137/18/70 140/17/70 141/41/69
f 141/41/69 142/40/68 137/18/70
f 143/18/72 144/19/73 145/20/74
f 145/20/74 146/17/75 143/18/72
f 143/18/72 146/17/75 147/41/76
f 147/41/76 148/40/77 143/18/72
f 149/18/78 150/19/55 151/20/56
f 151/20/56 152/17/79 149/18/78
f 149/18/78 152/17/79 153/41/80
f 153/41/80 154/40/47 149/18/78
f 155/18/81 156/19/82 157/20/83
f 157/20/83 158/17/81 155/18/81
f 155/18/81 158/17/81 159/41/84
f 159/41/84 160/40/85 155/18/81
f 161/18/86 162/19/87 163/20/87
f 163/20/87 164/17/86 161/18/86
f 161/18/86 164/17/86 165/41/88
f 165/41/88 166/40/82 161/18/86
f 167/18/89 168/19/90 169/20/90
f 169/20/90 170/17/91 167/18/89
f 167/18/89 170/17/91 171/41/92
f 171/41/92 172/40/92 167/18/89
f 173/18/93 174/19/94 175/20/95
f 175/20/95 176/17/96 173/18/93
f 173/18/93 176/17/96 177/41/97
f 177/41/97 178/40/17 173/18/93
f 179/18/98 180/19/99 181/20/100
f 181/20/100 182/17/101 179/18/98
f 179/18/98 182/17/101 183/41/95
f 183/41/95 184/40/102 179/18/98
f 185/18/103 186/19/104 187/20/105
f 187/20/105 188/17/106 185/18/103
f 185/18/103 188/17/106 189/41/100
f 189/41/100 190/40/107 185/18/103
f 191/18/108 192/19/85 193/20/109
f 193/20/109 194/17/110 191/18/108
f 191/18/108 194/17/110 195/41/105
f 195/41/105 196/40/111 191/18/108
f 197/42/112 198/43/113 199/44/114
f 200/45/115 199/44/114 198/43/113
f 199/44/114 201/46/116 197/42/112
f 198/43/113 202/47/117 200/45/115
f 203/48/118 197/42/112 201/46/116
f 202/47/117 198/43/113 204/49/119
f 205/50/120 204/49/119 198/43/113
f 206/51/121 205/50/120 197/42/112
f 197/42/112 203/48/118 206/51/121
f 204/49/119 205/50/120 207/52/122
f 205/50/120 206/51/121 208/53/123
f 208/53/123 207/52/122 205/50/120
f 209/54/124 206/51/121 203/48/118
f 210/55/125 208/53/123 206/51/121
f 206/51/121 209/54/124 210/55/125
f 207/52/122 208/53/123 211/56/126
f 208/53/123 210/55/125 212/57/127
f 212/57/127 211/56/126 208/53/123
f 213/58/128 210/55/125 209/54/124
f 214/59/129 212/57/127 210/55/125
f 210/55/125 213/58/128 214/59/129
f 211/56/126 212/57/127 215/60/130
f 212/57/127 214/59/129 216/61/131
f 216/61/131 215/60/130 212/57/127
f 217/62/132 214/59/129 213/58/128
f 218/63/133 216/61/131 214/59/129
f 214/59/129 217/62/132 218/63/133
f 215/60/130 216/61/131 219/64/134
f 216/61/131 218/63/133 220/65/135
f 220/65/135 219/64/134 216/61/131
f 221/66/136 218/63/133 217/62/132
f 222/67/137 220/65/135 218/63/133
f 218/63/133 221/66/136 222/67/137
f 219/64/134 220/65/135 223/68/138
f 220/65/135 222/67/137 224/69/139
f 224/69/139 223/68/138 220/65/135
f 225/70/140 222/67/137 221/66/136
f 226/71/141 224/69/139 222/67/137
f 222/67/137 225/70/140 226/71/141
f 223/68/138 224/69/139 227/72/142
f 224/69/139 226/71/141 228/73/143
f 228/73/143 227/72/142 224/69/139
f 229/74/144 226/71/141 225/70/140
f 230/75/145 228/73/143 226/71/141
f 226/71/141 229/74/144 230/75/145
f 227/72/142 228/73/143 231/76/146
f 228/73/143 230/75/145 232/77/147
f 232/77/147 231/76/146 228/73/143
f 233/78/148 230/75/145 229/74/144
f 234/79/149 232/77/147 230/75/145
f 230/75/145 233/78/148 234/79/149
f 231/76/146 232/77/147 235/80/150
f 232/77/147 234/79/149 236/81/151
f 236/81/151 235/80/150 232/77/147
f 237/82/152 234/79/149 233/78/148
f 238/83/153 236/81/151 234/79/149
f 234/79/149 237/82/152 238/83/153
f 235/80/150 236/81/151 239/84/154
f 236/81/151 238/83/153 240/85/155
f 240/85/155 239/84/154 236/81/151
f 241/86/156 238/83/153 237/82/152
f 239/84/154 240/85/155 199/44/114
f 242/87/157 240/85/155 238/83/153
f 238/83/153 241/86/156 242/87/157
f 201/46/116 199/44/114 240/85/155
f 240/85/155 242/87/157 201/46/116
f 199/44/114 200/45/115 239/84/154
f 243/88/158 201/46/116 242/87/157
f 201/46/116 243/88/158 203/48/118
f 244/89/159 239/84/154 200/45/115
f 239/84/154 244/89/159 235/80/150
f 245/90/160 203/48/118 243/88/158
f 203/48/118 245/90/160 209/54/124
f 242/87/157 246/91/161 243/88/158
f 246/91/161 242/87/157 241/86/156
f 243/88/158 247/92/162 245/90/160
f 247/92/162 243/88/158 246/91/161
f 200/45/115 247/92/162 244/89/159
f 246/91/161 244/89/159 247/92/162
f 247/92/162 200/45/115 202/47/117
f 202/47/117 245/90/160 247/92/162
f 244/89/159 246/91/161 248/93/163
f 248/93/163 235/80/150 244/89/159
f 241/86/156 248/93/163 246/91/161
f 235/80/150 248/93/163 231/76/146
f 248/93/163 241/86/156 249/94/164
f 249/94/164 231/76/146 248/93/163
f 237/82/152 249/94/164 241/86/156
f 231/76/146 249/94/164 227/72/142
f 249/94/164 237/82/152 250/95/165
f 250/95/165 227/72/142 249/94/164
f 233/78/148 250/95/165 237/82/152
f 227/72/142 250/95/165 223/68/138
f 250/95/165 233/78/148 251/96/166
f 251/96/166 223/68/138 250/95/165
f 229/74/144 251/96/166 233/78/148
f 223/68/138 251/96/166 219/64/134
f 251/96/166 229/74/144 252/97/167
f 252/97/167 219/64/134 251/96/166
f 225/70/140 252/97/167 229/74/144
f 219/64/134 252/97/167 215/60/130
f 252/97/167 225/70/140 253/98/168
f 253/98/168 215/60/130 252/97/167
f 221/66/136 253/98/168 225/70/140
f 215/60/130 253/98/168 211/56/126
f 253/98/168 221/66/136 254/99/169
f 254/99/169 211/56/126 253/98/168
f 217/62/132 254/99/169 221/66/136
f 211/56/126 254/99/169 207/52/122
f 254/99/169 217/62/132 255/100/170
f 255/100/170 207/52/122 254/99/169
f 213/58/128 255/100/170 217/62/132
f 207/52/122 255/100/170 204/49/119
f 255/100/170 213/58/128 256/101/171
f 256/101/171 204/49/119 255/100/170
f 209/54/124 256/101/171 213/58/128
f 204/49/119 256/101/171 202/47/117
f 256/101/171 209/54/124 245/90/160
f 245/90/160 202/47/117 256/101/171
