# Blender 4.5.10 LTS
# www.blender.org
mtllib MODELO 08.mtl
o hash_E597BBC0.model
v 0.073242 0.540527 0.018066
v 0.068848 0.541992 0.018555
v 0.065430 0.533691 0.029297
v 0.070312 0.532227 0.029297
v -0.055664 0.525879 0.036621
v -0.056641 0.532715 0.027832
v -0.061523 0.532715 0.028320
v -0.060547 0.525391 0.037109
v 0.057617 0.506836 0.062012
v 0.055664 0.497559 0.071289
v 0.060547 0.497070 0.071777
v 0.062500 0.506348 0.062500
v 0.059570 0.516113 0.052246
v 0.064453 0.515137 0.052246
v 0.049805 0.469727 0.093262
v 0.047852 0.459961 0.100098
v 0.052734 0.458496 0.100586
v 0.054688 0.468750 0.093750
v 0.052246 0.479004 0.085449
v 0.057129 0.478027 0.086426
v -0.031738 0.293945 0.155273
v 0.038574 0.293457 0.150879
v 0.041992 0.294922 0.149902
v -0.035156 0.295898 0.155273
v -0.036621 0.299805 0.154785
v 0.043457 0.297852 0.149414
v 0.040527 0.399902 0.130371
v -0.036621 0.401367 0.133789
v -0.036621 0.401367 0.130859
v 0.040527 0.399902 0.130371
v -0.036621 0.299805 0.154785
v 0.040039 0.399902 0.126953
v 0.043457 0.297852 0.149414
v 0.042969 0.297852 0.146484
v 0.041992 0.294922 0.149902
v 0.041992 0.294922 0.146973
v 0.038574 0.293457 0.150879
v 0.038574 0.293457 0.147461
v -0.032227 0.293945 0.152344
v -0.031738 0.293945 0.155273
v 0.040039 0.399902 0.126953
v 0.042969 0.297852 0.146484
v -0.037109 0.299805 0.151855
v -0.035156 0.295898 0.155273
v -0.035645 0.295898 0.151855
v 0.038574 0.293457 0.147461
v 0.042969 0.297852 0.146484
v 0.041992 0.294922 0.146973
v 0.045898 0.450684 0.105957
v 0.043945 0.440430 0.111816
v 0.048828 0.438965 0.111816
v 0.050781 0.449219 0.106445
v 0.052734 0.458496 0.100586
v 0.047852 0.459961 0.100098
v 0.041504 0.430664 0.116699
v 0.039062 0.420410 0.121094
v 0.043945 0.418945 0.121094
v 0.046387 0.429199 0.116699
v 0.048828 0.438965 0.111816
v 0.043945 0.440430 0.111816
v 0.036621 0.409668 0.125000
v 0.033203 0.399414 0.128418
v 0.038086 0.397949 0.128418
v 0.041016 0.408203 0.125000
v 0.043945 0.418945 0.121094
v 0.039062 0.420410 0.121094
v 0.062012 0.524414 0.041504
v 0.059570 0.516113 0.052246
v 0.064453 0.515137 0.052246
v 0.066895 0.523438 0.041504
v 0.070312 0.532227 0.029297
v 0.065430 0.533691 0.029297
v 0.053711 0.488770 0.078613
v 0.052246 0.479004 0.085449
v 0.057129 0.478027 0.086426
v 0.058594 0.487793 0.079102
v 0.060547 0.497070 0.071777
v 0.055664 0.497559 0.071289
v -0.043945 0.448730 0.105957
v -0.041992 0.439453 0.111328
v -0.037109 0.440918 0.111328
v -0.039062 0.450195 0.105469
v -0.041016 0.458984 0.099121
v -0.045898 0.457520 0.099609
v -0.039551 0.429688 0.117188
v -0.037598 0.419922 0.122559
v -0.032715 0.421387 0.122070
v -0.035156 0.431152 0.116699
v -0.037109 0.440918 0.111328
v -0.041992 0.439453 0.111328
v -0.035156 0.409668 0.127441
v -0.032227 0.399902 0.132812
v -0.027344 0.401367 0.132324
v -0.030273 0.411133 0.126953
v -0.032715 0.421387 0.122070
v -0.037598 0.419922 0.122559
v -0.058594 0.517090 0.046875
v -0.057129 0.509277 0.056152
v -0.052246 0.510254 0.055664
v -0.053711 0.517578 0.046387
v -0.055664 0.525879 0.036621
v -0.060547 0.525391 0.037109
v -0.055176 0.500977 0.063965
v -0.053223 0.493164 0.071289
v -0.048340 0.494141 0.070801
v -0.050293 0.501953 0.063477
v -0.052246 0.510254 0.055664
v -0.057129 0.509277 0.056152
v -0.051270 0.484375 0.078613
v -0.049316 0.475586 0.085449
v -0.044434 0.476562 0.084961
v -0.045898 0.485352 0.078125
v -0.048340 0.494141 0.070801
v -0.053223 0.493164 0.071289
v -0.047852 0.466309 0.092773
v -0.045898 0.457520 0.099609
v -0.041016 0.458984 0.099121
v -0.042969 0.467773 0.092285
v -0.044434 0.476562 0.084961
v -0.049316 0.475586 0.085449
vn 0.2071 0.7461 0.6328
vn 0.2109 0.7419 0.6365
vn 0.2069 0.7497 0.6286
vn 0.1955 0.7585 0.6217
vn -0.0039 0.7774 0.6290
vn 0.0117 0.7808 0.6246
vn 0.0039 0.7809 0.6247
vn -0.0000 0.7774 0.6290
vn 0.0664 0.7075 0.7036
vn 0.0313 0.6604 0.7503
vn 0.0352 0.6645 0.7465
vn 0.0977 0.7230 0.6839
vn 0.1172 0.7420 0.6600
vn 0.1485 0.7464 0.6487
vn 0.0468 0.5817 0.8120
vn 0.0625 0.5464 0.8352
vn 0.0663 0.5344 0.8426
vn 0.0234 0.6048 0.7960
vn 0.0117 0.6180 0.7861
vn -0.0117 0.6025 0.7981
vn 0.0663 0.2576 0.9640
vn 0.0665 0.2896 0.9548
vn 0.0704 0.1956 0.9782
vn 0.0704 0.1760 0.9819
vn 0.0625 0.1641 0.9845
vn 0.0703 0.1640 0.9840
vn 0.0585 0.1950 0.9791
vn 0.0509 0.2034 0.9778
vn -0.0703 -0.2031 -0.9766
vn 0.0508 0.2033 0.9778
vn 0.9922 0.0039 -0.1250
vn -0.9335 -0.3515 0.0703
vn -0.0508 -0.1875 -0.9809
vn 0.9246 -0.3745 -0.0703
vn -0.0703 -0.1406 -0.9876
vn 0.9246 -0.3745 -0.0702
vn -0.0702 -0.2848 -0.9560
vn 0.3993 -0.9163 -0.0313
vn -0.0664 -0.2226 -0.9726
vn -0.4962 -0.8675 0.0352
vn -0.0508 -0.1876 -0.9809
vn -0.0703 -0.1405 -0.9876
vn -0.0704 -0.1291 -0.9891
vn -0.4963 -0.8675 0.0352
vn -0.0663 -0.2227 -0.9726
vn -0.0702 -0.1405 -0.9876
vn 0.1013 0.4911 0.8652
vn 0.1092 0.4367 0.8929
vn 0.1094 0.4336 0.8945
vn 0.1131 0.4799 0.8700
vn 0.1057 0.3875 0.9158
vn 0.1132 0.3514 0.9293
vn 0.1055 0.3518 0.9301
vn 0.1014 0.3862 0.9168
vn 0.1092 0.4367 0.8930
vn 0.0936 0.3043 0.9480
vn 0.0821 0.2738 0.9583
vn 0.0939 0.3089 0.9464
vn 0.1055 0.3517 0.9301
vn 0.1757 0.7576 0.6287
vn 0.1798 0.7624 0.6216
vn -0.0000 0.6137 0.7896
vn 0.0117 0.6179 0.7861
vn -0.0117 0.6024 0.7981
vn -0.0078 0.6161 0.7877
vn 0.0352 0.6644 0.7465
vn 0.0312 0.6604 0.7503
vn -0.1174 0.5281 0.8410
vn -0.1056 0.4849 0.8682
vn -0.0975 0.4837 0.8698
vn -0.1173 0.5864 0.8015
vn -0.1248 0.5771 0.8071
vn -0.0821 0.4690 0.8794
vn -0.0665 0.4540 0.8885
vn -0.0624 0.4526 0.8895
vn -0.0743 0.4693 0.8799
vn -0.0468 0.4529 0.8903
vn -0.0351 0.4764 0.8785
vn -0.0429 0.4716 0.8808
vn -0.0430 0.4499 0.8920
vn -0.0195 0.7613 0.6481
vn -0.0351 0.7221 0.6909
vn -0.0352 0.7241 0.6888
vn -0.0234 0.7648 0.6438
vn -0.0469 0.6885 0.7237
vn -0.0509 0.6493 0.7588
vn -0.0507 0.6516 0.7569
vn -0.0507 0.6904 0.7216
vn -0.0508 0.6215 0.7818
vn -0.0430 0.6131 0.7888
vn -0.0585 0.6126 0.7882
vn -0.0625 0.6211 0.7812
vn -0.0507 0.6515 0.7569
vn -0.0508 0.6493 0.7588
vn -0.0898 0.6088 0.7883
vn -0.0899 0.6174 0.7815
vt 0.405182 0.763412
vt 0.494614 0.763412
vt 0.494614 0.993439
vt 0.405182 0.993439
vt 0.494614 0.531860
vt 0.405182 0.531860
vt 0.047577 0.519241
vt 0.370651 0.516052
vt 0.380539 0.522858
vt 0.031464 0.528351
vt 0.025192 0.544632
vt 0.383545 0.536850
vt 0.383545 0.977112
vt 0.025192 0.977112
vt 0.008820 0.998779
vt 0.383545 0.998779
vt 0.383545 0.538422
vt 0.380539 0.524414
vt 0.370651 0.517624
vt 0.047577 0.520813
vt 0.008820 0.546204
vt 0.031464 0.529907
vt 0.025192 0.546204
s 1
usemtl teef_diff_003_a_uni
f 1/1/1 2/2/2 3/3/3
f 3/3/3 4/4/4 1/1/1
f 5/4/5 6/1/6 7/2/7
f 7/2/7 8/3/8 5/4/5
f 9/2/9 10/3/10 11/4/11
f 11/4/11 12/1/12 9/2/9
f 13/5/13 9/2/9 12/1/12
f 12/1/12 14/6/14 13/5/13
f 15/2/15 16/3/16 17/4/17
f 17/4/17 18/1/18 15/2/15
f 19/5/19 15/2/15 18/1/18
f 18/1/18 20/6/20 19/5/19
f 21/7/21 22/8/22 23/9/23
f 23/9/23 24/10/24 21/7/21
f 25/11/25 24/10/24 23/9/23
f 23/9/23 26/12/26 25/11/25
f 25/11/25 26/12/26 27/13/27
f 27/13/27 28/14/28 25/11/25
f 29/15/29 28/14/30 30/13/31
f 31/11/32 28/14/30 29/15/29
f 30/13/31 32/16/33 29/15/29
f 32/16/33 30/13/31 33/12/34
f 33/12/34 34/17/35 32/16/33
f 34/17/35 33/12/34 35/9/36
f 35/9/36 36/18/37 34/17/35
f 36/18/37 35/9/36 37/8/38
f 37/8/38 38/19/39 36/18/37
f 39/20/39 38/19/39 37/8/38
f 37/8/38 40/7/40 39/20/39
f 29/15/29 41/15/41 42/21/42
f 42/21/42 43/21/43 29/15/29
f 29/15/29 43/21/43 31/11/32
f 44/10/44 31/11/32 43/21/43
f 45/22/45 39/20/39 40/7/40
f 40/7/40 44/10/44 45/22/45
f 43/21/43 45/22/45 44/10/44
f 46/20/39 39/20/39 45/22/45
f 45/22/45 43/21/43 47/23/46
f 45/22/45 48/22/37 46/20/39
f 47/23/46 48/22/37 45/22/45
f 49/2/47 50/3/48 51/4/49
f 51/4/49 52/1/50 49/2/47
f 49/2/47 52/1/50 53/6/17
f 53/6/17 54/5/16 49/2/47
f 55/2/51 56/3/52 57/4/53
f 57/4/53 58/1/54 55/2/51
f 55/2/51 58/1/54 59/6/49
f 59/6/49 60/5/55 55/2/51
f 61/2/56 62/3/57 63/4/57
f 63/4/57 64/1/58 61/2/56
f 61/2/56 64/1/58 65/6/59
f 65/6/59 66/5/52 61/2/56
f 67/2/60 68/3/13 69/4/14
f 69/4/14 70/1/61 67/2/60
f 67/2/60 70/1/61 71/6/4
f 71/6/4 72/5/3 67/2/60
f 73/2/62 74/3/63 75/4/64
f 75/4/64 76/1/65 73/2/62
f 73/2/62 76/1/65 77/6/66
f 77/6/66 78/5/67 73/2/62
f 79/2/68 80/3/69 81/4/70
f 81/4/70 82/1/68 79/2/68
f 79/2/68 82/1/68 83/6/71
f 83/6/71 84/5/72 79/2/68
f 85/2/73 86/3/74 87/4/75
f 87/4/75 88/1/76 85/2/73
f 85/2/73 88/1/76 89/6/70
f 89/6/70 90/5/69 85/2/73
f 91/2/77 92/3/78 93/4/79
f 93/4/79 94/1/80 91/2/77
f 91/2/77 94/1/80 95/6/75
f 95/6/75 96/5/74 91/2/77
f 97/2/81 98/3/82 99/4/83
f 99/4/83 100/1/84 97/2/81
f 97/2/81 100/1/84 101/6/5
f 101/6/5 102/5/8 97/2/81
f 103/2/85 104/3/86 105/4/87
f 105/4/87 106/1/88 103/2/85
f 103/2/85 106/1/88 107/6/83
f 107/6/83 108/5/82 103/2/85
f 109/2/89 110/3/90 111/4/91
f 111/4/91 112/1/92 109/2/89
f 109/2/89 112/1/92 113/6/93
f 113/6/93 114/5/94 109/2/89
f 115/2/95 116/3/72 117/4/71
f 117/4/71 118/1/96 115/2/95
f 115/2/95 118/1/96 119/6/91
f 119/6/91 120/5/90 115/2/95
