# Blender 4.5.10 LTS
# www.blender.org
mtllib MODELO 02.mtl
o hash_F19DE766.model
v -0.031738 0.293945 0.156250
v 0.038574 0.293457 0.151367
v 0.041992 0.294922 0.150879
v -0.035156 0.295898 0.156250
v -0.036621 0.299805 0.155762
v 0.043457 0.297852 0.150391
v 0.040527 0.399902 0.131348
v -0.036621 0.401367 0.134766
v -0.036621 0.401367 0.131836
v 0.040527 0.399902 0.131348
v -0.036621 0.299805 0.155762
v 0.040039 0.399902 0.127930
v 0.043457 0.297852 0.150391
v 0.042969 0.297852 0.147461
v 0.041992 0.294922 0.150879
v 0.041992 0.294922 0.147949
v 0.038574 0.293457 0.151367
v 0.038574 0.293457 0.148438
v -0.032227 0.293945 0.153320
v -0.031738 0.293945 0.156250
v 0.040039 0.399902 0.127930
v 0.042969 0.297852 0.147461
v -0.037109 0.299805 0.152832
v -0.035156 0.295898 0.156250
v -0.035645 0.295898 0.152832
v 0.038574 0.293457 0.148438
v 0.042969 0.297852 0.147461
v 0.041992 0.294922 0.147949
v 0.068359 0.543457 0.010742
v 0.063477 0.544434 0.011230
v 0.055664 0.536621 0.021973
v 0.061035 0.535156 0.021973
v -0.050781 0.533691 0.034668
v -0.052734 0.540527 0.026367
v -0.057617 0.540527 0.026855
v -0.055664 0.533203 0.035156
v 0.040527 0.509766 0.054688
v 0.038086 0.500488 0.064453
v 0.042969 0.500000 0.064941
v 0.045410 0.509277 0.055176
v 0.044434 0.519043 0.044434
v 0.049316 0.518066 0.044922
v 0.035156 0.472168 0.088867
v 0.034180 0.461426 0.096680
v 0.039062 0.460449 0.097168
v 0.040039 0.470703 0.089355
v 0.036133 0.481445 0.080078
v 0.041016 0.480469 0.080566
v 0.032715 0.451660 0.104004
v 0.031738 0.441406 0.111328
v 0.036621 0.439941 0.111328
v 0.037598 0.450195 0.104492
v 0.039062 0.460449 0.097168
v 0.034180 0.461426 0.096680
v 0.031250 0.431152 0.116699
v 0.029785 0.420410 0.122070
v 0.034180 0.418945 0.122070
v 0.035645 0.429688 0.116699
v 0.036621 0.439941 0.111328
v 0.031738 0.441406 0.111328
v 0.028809 0.409668 0.126465
v 0.027344 0.399414 0.129883
v 0.031738 0.397949 0.130371
v 0.033203 0.408203 0.126465
v 0.034180 0.418945 0.122070
v 0.029785 0.420410 0.122070
v 0.049316 0.527344 0.034180
v 0.044434 0.519043 0.044434
v 0.049316 0.518066 0.044922
v 0.054199 0.526367 0.033691
v 0.061035 0.535156 0.021973
v 0.055664 0.536621 0.021973
v 0.036621 0.491211 0.072266
v 0.036133 0.481445 0.080078
v 0.041016 0.480469 0.080566
v 0.041504 0.490723 0.072754
v 0.042969 0.500000 0.064941
v 0.038086 0.500488 0.064453
v -0.039062 0.450195 0.100586
v -0.037598 0.439941 0.106934
v -0.032715 0.441406 0.106934
v -0.034180 0.451660 0.100586
v -0.035645 0.461426 0.093750
v -0.040527 0.459961 0.093750
v -0.035645 0.429688 0.113281
v -0.034180 0.419434 0.119629
v -0.029297 0.420898 0.119141
v -0.030762 0.431152 0.113281
v -0.032715 0.441406 0.106934
v -0.037598 0.439941 0.106934
v -0.032715 0.409180 0.125488
v -0.030762 0.399414 0.131836
v -0.025879 0.401367 0.130859
v -0.027832 0.410645 0.125000
v -0.029297 0.420898 0.119141
v -0.034180 0.419434 0.119629
v -0.053711 0.524902 0.043945
v -0.051758 0.517090 0.051758
v -0.046875 0.517578 0.051270
v -0.048828 0.525391 0.043457
v -0.050781 0.533691 0.034668
v -0.055664 0.533203 0.035156
v -0.049805 0.508301 0.059082
v -0.047852 0.499023 0.065918
v -0.042480 0.500488 0.065430
v -0.044922 0.508789 0.058594
v -0.046875 0.517578 0.051270
v -0.051758 0.517090 0.051758
v -0.045410 0.489258 0.072754
v -0.043945 0.479980 0.079590
v -0.039062 0.480957 0.078613
v -0.040527 0.490723 0.072266
v -0.042480 0.500488 0.065430
v -0.047852 0.499023 0.065918
v -0.042480 0.469238 0.086914
v -0.040527 0.459961 0.093750
v -0.035645 0.461426 0.093750
v -0.037109 0.470703 0.086426
v -0.039062 0.480957 0.078613
v -0.043945 0.479980 0.079590
vn 0.0663 0.2576 0.9640
vn 0.0665 0.2896 0.9548
vn 0.0704 0.1956 0.9781
vn 0.0704 0.1760 0.9819
vn 0.0625 0.1641 0.9845
vn 0.0703 0.1640 0.9840
vn 0.0585 0.1950 0.9791
vn 0.0509 0.2034 0.9778
vn -0.0703 -0.2031 -0.9766
vn 0.0508 0.2033 0.9778
vn 0.9922 0.0039 -0.1250
vn -0.9335 -0.3515 0.0703
vn -0.0508 -0.1875 -0.9809
vn 0.9246 -0.3745 -0.0703
vn -0.0703 -0.1406 -0.9876
vn 0.9246 -0.3745 -0.0702
vn -0.0702 -0.2848 -0.9560
vn 0.3993 -0.9163 -0.0313
vn -0.0664 -0.2226 -0.9726
vn -0.4962 -0.8675 0.0352
vn -0.0508 -0.1876 -0.9809
vn -0.0703 -0.1405 -0.9876
vn -0.0704 -0.1291 -0.9891
vn -0.4963 -0.8675 0.0352
vn -0.0663 -0.2227 -0.9726
vn -0.0702 -0.1405 -0.9876
vn 0.1995 0.7197 0.6650
vn 0.2032 0.7192 0.6644
vn 0.1989 0.7253 0.6591
vn 0.1874 0.7380 0.6482
vn 0.0117 0.7450 0.6670
vn 0.0235 0.7504 0.6605
vn 0.0196 0.7505 0.6606
vn 0.0195 0.7432 0.6688
vn 0.0701 0.7131 0.6975
vn 0.0351 0.6748 0.7372
vn 0.0390 0.6788 0.7333
vn 0.0977 0.7230 0.6839
vn 0.1134 0.7350 0.6685
vn 0.1409 0.7363 0.6619
vn 0.0585 0.6279 0.7761
vn 0.0780 0.6007 0.7957
vn 0.0819 0.5892 0.8038
vn 0.0352 0.6455 0.7629
vn 0.0235 0.6522 0.7577
vn -0.0000 0.6375 0.7705
vn 0.1210 0.5542 0.8235
vn 0.1288 0.5033 0.8545
vn 0.1326 0.5462 0.8271
vn 0.1252 0.4499 0.8842
vn 0.1289 0.4024 0.9063
vn 0.1212 0.4028 0.9072
vn 0.1212 0.4455 0.8871
vn 0.1054 0.3436 0.9332
vn 0.0899 0.3126 0.9456
vn 0.0938 0.3125 0.9453
vn 0.1289 0.4024 0.9064
vn 0.1676 0.7405 0.6508
vn 0.1410 0.7363 0.6619
vn 0.1722 0.7438 0.6459
vn 0.0078 0.6375 0.7704
vn 0.0234 0.6522 0.7577
vn 0.0039 0.6398 0.7685
vn 0.0390 0.6787 0.7334
vn -0.1211 0.5352 0.8360
vn -0.1174 0.5086 0.8529
vn -0.1093 0.5074 0.8548
vn -0.1170 0.5732 0.8110
vn -0.1248 0.5656 0.8152
vn -0.0938 0.5082 0.8561
vn -0.0858 0.4993 0.8621
vn -0.0781 0.4997 0.8627
vn -0.0898 0.5038 0.8592
vn -0.0665 0.5047 0.8607
vn -0.0546 0.5303 0.8461
vn -0.0625 0.5272 0.8474
vn -0.0624 0.5031 0.8620
vn -0.0858 0.4993 0.8622
vn -0.0000 0.7187 0.6953
vn -0.0117 0.6648 0.7469
vn -0.0156 0.6670 0.7449
vn -0.0039 0.7225 0.6913
vn 0.0195 0.7431 0.6689
vn -0.0235 0.6221 0.7826
vn -0.0313 0.5865 0.8094
vn -0.0312 0.5891 0.8075
vn -0.0273 0.6245 0.7806
vn -0.0156 0.6669 0.7450
vn -0.0390 0.5659 0.8235
vn -0.0352 0.5705 0.8206
vn -0.0508 0.5701 0.8200
vn -0.0468 0.5657 0.8233
vn -0.0312 0.5890 0.8075
vn -0.0821 0.5866 0.8057
vn -0.0859 0.5934 0.8003
vn -0.0351 0.5705 0.8206
vt 0.095139 0.519241
vt 0.741302 0.516052
vt 0.761078 0.522858
vt 0.062927 0.528351
vt 0.050385 0.544632
vt 0.767105 0.536850
vt 0.767105 0.977112
vt 0.050385 0.977112
vt 0.017654 0.998779
vt 0.767105 0.998779
vt 0.767105 0.538422
vt 0.761078 0.524414
vt 0.741302 0.517624
vt 0.095139 0.520813
vt 0.017639 0.546204
vt 0.062927 0.529907
vt 0.050385 0.546204
vt 0.810379 0.763412
vt 0.989212 0.763412
vt 0.989212 0.993439
vt 0.810379 0.993439
vt 0.989212 0.531860
vt 0.810379 0.531860
s 1
usemtl task_diff_000_a_uni
f 1/1/1 2/2/2 3/3/3
f 3/3/3 4/4/4 1/1/1
f 5/5/5 4/4/4 3/3/3
f 3/3/3 6/6/6 5/5/5
f 5/5/5 6/6/6 7/7/7
f 7/7/7 8/8/8 5/5/5
f 9/9/9 8/8/10 10/7/11
f 11/5/12 8/8/10 9/9/9
f 10/7/11 12/10/13 9/9/9
f 12/10/13 10/7/11 13/6/14
f 13/6/14 14/11/15 12/10/13
f 14/11/15 13/6/14 15/3/16
f 15/3/16 16/12/17 14/11/15
f 16/12/17 15/3/16 17/2/18
f 17/2/18 18/13/19 16/12/17
f 19/14/19 18/13/19 17/2/18
f 17/2/18 20/1/20 19/14/19
f 9/9/9 21/9/21 22/15/22
f 22/15/22 23/15/23 9/9/9
f 9/9/9 23/15/23 11/5/12
f 24/4/24 11/5/12 23/15/23
f 25/16/25 19/14/19 20/1/20
f 20/1/20 24/4/24 25/16/25
f 23/15/23 25/16/25 24/4/24
f 26/14/19 19/14/19 25/16/25
f 25/16/25 23/15/23 27/17/26
f 25/16/25 28/16/17 26/14/19
f 27/17/26 28/16/17 25/16/25
usemtl task_diff_000_a_uni.001
f 29/18/27 30/19/28 31/20/29
f 31/20/29 32/21/30 29/18/27
f 33/21/31 34/18/32 35/19/33
f 35/19/33 36/20/34 33/21/31
f 37/19/35 38/20/36 39/21/37
f 39/21/37 40/18/38 37/19/35
f 41/22/39 37/19/35 40/18/38
f 40/18/38 42/23/40 41/22/39
f 43/19/41 44/20/42 45/21/43
f 45/21/43 46/18/44 43/19/41
f 47/22/45 43/19/41 46/18/44
f 46/18/44 48/23/46 47/22/45
f 49/19/47 50/20/48 51/21/48
f 51/21/48 52/18/49 49/19/47
f 49/19/47 52/18/49 53/23/43
f 53/23/43 54/22/42 49/19/47
f 55/19/50 56/20/51 57/21/52
f 57/21/52 58/18/53 55/19/50
f 55/19/50 58/18/53 59/23/48
f 59/23/48 60/22/48 55/19/50
f 61/19/54 62/20/55 63/21/56
f 63/21/56 64/18/54 61/19/54
f 61/19/54 64/18/54 65/23/52
f 65/23/52 66/22/57 61/19/54
f 67/19/58 68/20/39 69/21/59
f 69/21/59 70/18/60 67/19/58
f 67/19/58 70/18/60 71/23/30
f 71/23/30 72/22/29 67/19/58
f 73/19/61 74/20/62 75/21/46
f 75/21/46 76/18/63 73/19/61
f 73/19/61 76/18/63 77/23/64
f 77/23/64 78/22/36 73/19/61
f 79/19/65 80/20/66 81/21/67
f 81/21/67 82/18/65 79/19/65
f 79/19/65 82/18/65 83/23/68
f 83/23/68 84/22/69 79/19/65
f 85/19/70 86/20/71 87/21/72
f 87/21/72 88/18/73 85/19/70
f 85/19/70 88/18/73 89/23/67
f 89/23/67 90/22/66 85/19/70
f 91/19/74 92/20/75 93/21/76
f 93/21/76 94/18/77 91/19/74
f 91/19/74 94/18/77 95/23/72
f 95/23/72 96/22/78 91/19/74
f 97/19/79 98/20/80 99/21/81
f 99/21/81 100/18/82 97/19/79
f 97/19/79 100/18/82 101/23/31
f 101/23/31 102/22/83 97/19/79
f 103/19/84 104/20/85 105/21/86
f 105/21/86 106/18/87 103/19/84
f 103/19/84 106/18/87 107/23/88
f 107/23/88 108/22/80 103/19/84
f 109/19/89 110/20/90 111/21/91
f 111/21/91 112/18/92 109/19/89
f 109/19/89 112/18/92 113/23/93
f 113/23/93 114/22/85 109/19/89
f 115/19/94 116/20/69 117/21/68
f 117/21/68 118/18/95 115/19/94
f 115/19/94 118/18/95 119/23/91
f 119/23/91 120/22/96 115/19/94
