# Blender 4.5.10 LTS
# www.blender.org
mtllib MODELO 02.mtl
o hash_0616AD58.model
v -0.046387 0.537598 0.080078
v -0.040527 0.532715 0.075684
v -0.039551 0.519531 0.075195
v -0.045410 0.519043 0.080078
v -0.042480 0.546875 0.077637
v -0.036133 0.506836 0.076660
v -0.047852 0.538086 0.081543
v -0.028320 0.520508 0.070312
v -0.040039 0.542480 0.075684
v -0.031738 0.543945 0.074219
v -0.030762 0.540039 0.072754
v -0.044434 0.548828 0.079590
v -0.016602 0.536133 0.072266
v -0.032227 0.544922 0.076172
v -0.041504 0.544434 0.081055
v -0.031250 0.541992 0.078125
v -0.041504 0.533203 0.082520
v -0.028320 0.520508 0.082520
v -0.040527 0.519531 0.084473
v -0.046875 0.518555 0.083008
v -0.036621 0.506348 0.082520
v -0.040039 0.501465 0.080566
v -0.041016 0.500488 0.081543
v -0.032715 0.495117 0.080566
v -0.033203 0.493164 0.078125
v -0.032227 0.497070 0.076660
v -0.033691 0.491211 0.079102
v -0.024902 0.497559 0.075684
v -0.025391 0.501465 0.073730
v -0.024902 0.499512 0.078613
v -0.025391 0.496582 0.076660
v -0.014648 0.520996 0.079102
v -0.013672 0.507812 0.076660
v -0.013672 0.506348 0.072754
v -0.013672 0.505859 0.074707
v -0.007324 0.520996 0.078613
v -0.016113 0.535156 0.075684
v -0.006348 0.512207 0.076660
v -0.016602 0.537109 0.073730
v -0.007324 0.530762 0.075684
v -0.006348 0.520996 0.079590
v -0.006348 0.511230 0.074219
v -0.007324 0.533203 0.072754
v -0.005371 0.511230 0.077148
v -0.006348 0.511719 0.072266
v -0.004883 0.509766 0.074219
v -0.013672 0.508789 0.071289
v -0.005371 0.510254 0.072266
v -0.006348 0.513184 0.070801
v -0.014648 0.520996 0.068848
v -0.007324 0.521484 0.068848
v -0.016113 0.533691 0.070801
v -0.007324 0.532227 0.071289
v -0.007324 0.529785 0.069824
v -0.006348 0.521484 0.067871
v -0.005371 0.512695 0.069824
v -0.006348 0.533203 0.070801
v 0.006348 0.513184 0.070801
v -0.006348 0.530762 0.068848
v 0.006836 0.521973 0.068359
v 0.006348 0.510742 0.072754
v 0.006348 0.530762 0.069824
v 0.005859 0.509766 0.074707
v 0.006348 0.533691 0.071777
v 0.006348 0.511719 0.077637
v 0.007324 0.530273 0.070801
v 0.006836 0.521484 0.080566
v 0.007324 0.511230 0.074707
v 0.007324 0.512695 0.077637
v 0.007324 0.512207 0.073242
v 0.015137 0.506348 0.075684
v 0.007324 0.513672 0.071289
v 0.007812 0.521973 0.069824
v 0.015137 0.509766 0.072754
v 0.014648 0.507324 0.074219
v 0.015625 0.521484 0.070801
v 0.026855 0.502441 0.076660
v 0.016113 0.534180 0.073242
v 0.007324 0.532715 0.072266
v 0.030273 0.541016 0.077148
v 0.016602 0.537109 0.074707
v 0.007324 0.533691 0.073730
v 0.016602 0.538086 0.076172
v 0.006348 0.535156 0.073730
v 0.007324 0.531250 0.076660
v -0.005859 0.534180 0.072754
v 0.006348 0.532227 0.077148
v -0.006348 0.531738 0.076172
v 0.007812 0.521484 0.079590
v 0.016113 0.535645 0.078125
v 0.015137 0.508301 0.078125
v 0.015625 0.521484 0.081055
v 0.031738 0.546387 0.080566
v 0.030762 0.543457 0.083008
v 0.031250 0.545410 0.079102
v 0.043945 0.550781 0.085449
v 0.040039 0.543945 0.081055
v 0.041992 0.548828 0.083496
v 0.041016 0.546387 0.086914
v 0.029297 0.521484 0.074219
v 0.047852 0.540527 0.087891
v 0.029297 0.521484 0.085938
v 0.041504 0.535156 0.088379
v 0.046387 0.539551 0.085938
v 0.047852 0.520996 0.089355
v 0.041016 0.534668 0.081055
v 0.046387 0.520996 0.086426
v 0.040527 0.521484 0.080566
v 0.041504 0.521484 0.089844
v 0.042480 0.502441 0.086914
v 0.041504 0.503418 0.085449
v 0.037598 0.508789 0.081055
v 0.035156 0.494629 0.082031
v 0.034180 0.498535 0.080566
v 0.026855 0.499023 0.078125
v 0.036133 0.493164 0.083496
v 0.027344 0.498047 0.079590
v 0.026855 0.500977 0.081055
v 0.034668 0.496582 0.083984
v 0.038086 0.507812 0.086914
vn -0.6689 0.0117 -0.7432
vn -0.5190 0.0117 -0.8547
vn -0.5318 -0.1017 -0.8407
vn -0.7317 -0.1487 -0.6652
vn -0.5164 0.2543 -0.8177
vn -0.4959 -0.2069 -0.8434
vn -0.9154 0.1721 0.3638
vn -0.2858 -0.0744 -0.9554
vn -0.3481 0.1643 -0.9230
vn 0.0351 0.6394 -0.7680
vn -0.0782 0.2620 -0.9619
vn 0.0039 0.9822 0.1879
vn 0.2187 0.6601 -0.7187
vn 0.4142 0.9026 0.1172
vn 0.1289 0.2460 0.9607
vn 0.3355 0.4135 0.8465
vn 0.0625 0.1368 0.9886
vn 0.2185 0.0312 0.9753
vn -0.0390 -0.0000 0.9992
vn -0.9010 -0.2379 0.3627
vn 0.0156 -0.1409 0.9899
vn -0.6561 -0.2304 -0.7186
vn -0.7978 -0.5201 0.3050
vn 0.1794 -0.2184 0.9592
vn -0.3904 -0.3513 -0.8510
vn -0.2848 -0.2536 -0.9245
vn 0.2651 -0.9474 0.1793
vn 0.1564 -0.5982 -0.7859
vn -0.0587 -0.3169 -0.9467
vn 0.3789 -0.3125 0.8711
vn 0.5899 -0.7930 0.1523
vn 0.1952 0.0429 0.9798
vn 0.3469 -0.4132 0.8420
vn 0.3712 -0.6643 -0.6487
vn 0.5895 -0.8003 0.1093
vn -0.1953 0.0312 0.9802
vn 0.2852 0.4688 0.8360
vn -0.2110 -0.5821 0.7853
vn 0.4136 0.9052 0.0975
vn -0.2381 0.5151 0.8234
vn -0.4416 0.0625 0.8950
vn -0.4102 -0.9104 0.0547
vn -0.4879 0.8665 0.1054
vn -0.3598 -0.6257 0.6922
vn 0.0625 -0.8132 -0.5786
vn -0.4229 -0.9045 0.0548
vn 0.1213 -0.3915 -0.9122
vn -0.3789 -0.7813 -0.4960
vn -0.4491 -0.4608 -0.7655
vn -0.0704 -0.0352 -0.9969
vn -0.2852 -0.0508 -0.9571
vn 0.0195 0.3080 -0.9512
vn -0.1251 0.6838 -0.7189
vn -0.5158 0.2931 -0.8050
vn -0.4103 -0.0977 -0.9067
vn -0.3318 -0.4802 -0.8120
vn -0.4565 0.6867 -0.5658
vn 0.2700 -0.4619 -0.8448
vn -0.2270 0.3522 -0.9080
vn 0.4534 -0.0157 -0.8912
vn 0.5355 -0.6997 -0.4730
vn 0.4138 0.3435 -0.8431
vn 0.2933 -0.9540 0.0626
vn 0.4715 0.6313 -0.6157
vn 0.4218 -0.6132 0.6679
vn 0.5577 0.3042 -0.7723
vn 0.3243 -0.0234 0.9457
vn 0.4100 -0.9099 0.0624
vn 0.1368 -0.5824 0.8013
vn 0.0117 -0.7995 -0.6006
vn -0.5468 -0.8320 0.0937
vn 0.4727 -0.4220 -0.7736
vn 0.3754 -0.0234 -0.9266
vn -0.0000 -0.3754 -0.9269
vn -0.2736 -0.6840 -0.6762
vn 0.2028 -0.0000 -0.9792
vn 0.1955 -0.2854 -0.9383
vn 0.1095 0.3167 -0.9422
vn 0.1916 0.6802 -0.7076
vn 0.1832 0.2768 -0.9433
vn -0.1445 0.6677 -0.7302
vn 0.4535 0.8835 0.1173
vn -0.4488 0.8899 0.0820
vn 0.2343 0.9646 0.1211
vn 0.1212 0.5084 0.8525
vn -0.4333 0.8941 0.1132
vn 0.2700 0.5205 0.8101
vn -0.3911 0.5787 0.7156
vn 0.0821 0.0117 0.9966
vn -0.3939 0.4173 0.8190
vn -0.3984 -0.4257 0.8124
vn -0.3009 -0.0039 0.9536
vn -0.4616 0.8803 0.1095
vn -0.4345 0.3680 0.8221
vn 0.0195 0.6439 -0.7649
vn -0.0703 0.9798 0.1874
vn 0.4223 0.1838 -0.8876
vn 0.5538 0.2692 -0.7879
vn -0.2418 0.2262 0.9436
vn 0.4026 -0.0352 -0.9147
vn 0.8698 0.2692 0.4135
vn -0.3443 -0.0039 0.9389
vn -0.1210 0.1053 0.9871
vn 0.7504 0.0235 -0.6605
vn 0.8826 -0.0703 0.4648
vn 0.6177 0.0313 -0.7858
vn 0.7815 -0.0899 -0.6174
vn 0.6133 -0.0859 -0.7852
vn -0.1326 -0.0390 0.9904
vn 0.7651 -0.4762 0.4333
vn 0.6941 -0.1911 -0.6941
vn 0.5734 -0.1599 -0.8035
vn 0.5201 -0.3247 -0.7900
vn 0.4258 -0.2148 -0.8789
vn -0.0196 -0.6136 -0.7894
vn -0.2582 -0.9506 0.1721
vn -0.5587 -0.8205 0.1211
vn -0.4607 -0.3202 0.8278
vn -0.3247 -0.2230 0.9192
vn -0.2693 -0.1444 0.9522
vt 0.088608 0.778320
vt 0.132812 0.704910
vt 0.120514 0.507294
vt 0.070831 0.504929
vt 0.141083 0.900955
vt 0.134537 0.307236
vt 0.076050 0.788605
vt 0.230835 0.510513
vt 0.150681 0.845016
vt 0.233505 0.850800
vt 0.233932 0.798553
vt 0.126587 0.939102
vt 0.362518 0.718048
vt 0.227646 0.872757
vt 0.143921 0.876328
vt 0.232513 0.826233
vt 0.127380 0.711288
vt 0.231232 0.505051
vt 0.114487 0.506989
vt 0.051559 0.504364
vt 0.128113 0.301376
vt 0.091660 0.243835
vt 0.080475 0.227356
vt 0.155640 0.132294
vt 0.149094 0.105423
vt 0.159958 0.155884
vt 0.138550 0.083282
vt 0.239075 0.162750
vt 0.241531 0.213867
vt 0.240128 0.188004
vt 0.234344 0.146515
vt 0.360657 0.503067
vt 0.364578 0.299362
vt 0.368347 0.290649
vt 0.361176 0.264221
vt 0.453278 0.499557
vt 0.360474 0.705490
vt 0.458069 0.397202
vt 0.356537 0.746704
vt 0.457581 0.603546
vt 0.460999 0.498581
vt 0.456909 0.372391
vt 0.456833 0.637817
vt 0.466415 0.386047
vt 0.457321 0.387192
vt 0.467178 0.364731
vt 0.365448 0.315765
vt 0.468048 0.375214
vt 0.457047 0.404785
vt 0.360367 0.502640
vt 0.453461 0.498047
vt 0.361359 0.687881
vt 0.456650 0.612152
vt 0.457001 0.593231
vt 0.461060 0.498550
vt 0.464691 0.396927
vt 0.467590 0.631577
vt 0.553238 0.397171
vt 0.464249 0.603241
vt 0.557144 0.499405
vt 0.549988 0.374695
vt 0.554611 0.603897
vt 0.550980 0.363403
vt 0.551651 0.633087
vt 0.551666 0.386017
vt 0.563049 0.593613
vt 0.557114 0.499313
vt 0.562485 0.371735
vt 0.562119 0.396103
vt 0.561249 0.386749
vt 0.659622 0.264236
vt 0.562347 0.405273
vt 0.566437 0.499557
vt 0.655289 0.316071
vt 0.652481 0.290894
vt 0.660324 0.502609
vt 0.779648 0.213028
vt 0.659744 0.688171
vt 0.563934 0.613022
vt 0.786545 0.797531
vt 0.658981 0.718811
vt 0.563492 0.639420
vt 0.664307 0.746750
vt 0.552917 0.652100
vt 0.562881 0.603607
vt 0.466934 0.649063
vt 0.553192 0.618530
vt 0.466034 0.617432
vt 0.567123 0.496796
vt 0.660339 0.705109
vt 0.656616 0.298950
vt 0.656601 0.507126
vt 0.793213 0.872757
vt 0.788269 0.826157
vt 0.787842 0.851883
vt 0.894272 0.939102
vt 0.870483 0.846878
vt 0.883682 0.906113
vt 0.874832 0.872787
vt 0.789902 0.504669
vt 0.944809 0.788605
vt 0.790314 0.509552
vt 0.894394 0.713928
vt 0.931946 0.764954
vt 0.969299 0.504364
vt 0.886963 0.705856
vt 0.950058 0.504807
vt 0.900360 0.507126
vt 0.906372 0.507095
vt 0.940384 0.227356
vt 0.928940 0.236282
vt 0.886902 0.309937
vt 0.869827 0.107208
vt 0.860733 0.157211
vt 0.781326 0.163452
vt 0.882309 0.083282
vt 0.786514 0.146515
vt 0.781052 0.187729
vt 0.866287 0.130692
vt 0.892059 0.301331
s 1
usemtl teef_diff_001_a_uni
f 1/1/1 2/2/2 3/3/3
f 3/3/3 4/4/4 1/1/1
f 2/2/2 1/1/1 5/5/5
f 4/4/4 3/3/3 6/6/6
f 5/5/5 1/1/1 7/7/7
f 7/7/7 1/1/1 4/4/4
f 2/2/2 8/8/8 3/3/3
f 3/3/3 8/8/8 6/6/6
f 5/5/5 9/9/9 2/2/2
f 8/8/8 2/2/2 9/9/9
f 9/9/9 5/5/5 10/10/10
f 9/9/9 11/11/11 8/8/8
f 10/10/10 11/11/11 9/9/9
f 10/10/10 5/5/5 12/12/12
f 7/7/7 12/12/12 5/5/5
f 11/11/11 10/10/10 13/13/13
f 12/12/12 14/14/14 10/10/10
f 13/13/13 10/10/10 14/14/14
f 15/15/15 12/12/12 7/7/7
f 16/16/16 14/14/14 12/12/12
f 12/12/12 15/15/15 16/16/16
f 7/7/7 17/17/17 15/15/15
f 18/18/18 16/16/16 15/15/15
f 15/15/15 17/17/17 18/18/18
f 19/19/19 17/17/17 7/7/7
f 19/19/19 18/18/18 17/17/17
f 7/7/7 20/20/20 19/19/19
f 4/4/4 20/20/20 7/7/7
f 21/21/21 18/18/18 19/19/19
f 21/21/21 19/19/19 20/20/20
f 20/20/20 4/4/4 22/22/22
f 6/6/6 22/22/22 4/4/4
f 20/20/20 23/23/23 21/21/21
f 22/22/22 23/23/23 20/20/20
f 18/18/18 21/21/21 24/24/24
f 24/24/24 21/21/21 23/23/23
f 25/25/25 22/22/22 6/6/6
f 23/23/23 22/22/22 25/25/25
f 6/6/6 26/26/26 25/25/25
f 26/26/26 6/6/6 8/8/8
f 25/25/25 27/27/27 23/23/23
f 23/23/23 27/27/27 24/24/24
f 28/28/28 25/25/25 26/26/26
f 27/27/27 25/25/25 28/28/28
f 8/8/8 29/29/29 26/26/26
f 26/26/26 29/29/29 28/28/28
f 30/30/30 24/24/24 27/27/27
f 24/24/24 30/30/30 18/18/18
f 28/28/28 31/31/31 27/27/27
f 27/27/27 31/31/31 30/30/30
f 32/32/32 18/18/18 30/30/30
f 16/16/16 18/18/18 32/32/32
f 33/33/33 30/30/30 31/31/31
f 30/30/30 33/33/33 32/32/32
f 31/31/31 28/28/28 34/34/34
f 34/34/34 28/28/28 29/29/29
f 31/31/31 35/35/35 33/33/33
f 34/34/34 35/35/35 31/31/31
f 36/36/36 32/32/32 33/33/33
f 32/32/32 37/37/37 16/16/16
f 37/37/37 32/32/32 36/36/36
f 14/14/14 16/16/16 37/37/37
f 33/33/33 38/38/38 36/36/36
f 38/38/38 33/33/33 35/35/35
f 37/37/37 39/39/39 14/14/14
f 14/14/14 39/39/39 13/13/13
f 36/36/36 40/40/40 37/37/37
f 39/39/39 37/37/37 40/40/40
f 41/41/41 36/36/36 38/38/38
f 40/40/40 36/36/36 41/41/41
f 35/35/35 42/42/42 38/38/38
f 40/40/40 43/43/43 39/39/39
f 44/44/44 38/38/38 42/42/42
f 38/38/38 44/44/44 41/41/41
f 45/45/45 42/42/42 35/35/35
f 35/35/35 34/34/34 45/45/45
f 42/42/42 46/46/46 44/44/44
f 45/45/45 34/34/34 47/47/47
f 29/29/29 47/47/47 34/34/34
f 42/42/42 45/45/45 48/48/48
f 48/48/48 46/46/46 42/42/42
f 47/47/47 49/49/49 45/45/45
f 48/48/48 45/45/45 49/49/49
f 50/50/50 47/47/47 29/29/29
f 29/29/29 8/8/8 50/50/50
f 50/50/50 8/8/8 11/11/11
f 47/47/47 50/50/50 51/51/51
f 51/51/51 49/49/49 47/47/47
f 11/11/11 52/52/52 50/50/50
f 51/51/51 50/50/50 52/52/52
f 13/13/13 52/52/52 11/11/11
f 52/52/52 13/13/13 53/53/53
f 53/53/53 13/13/13 39/39/39
f 39/39/39 43/43/43 53/53/53
f 52/52/52 54/54/54 51/51/51
f 53/53/53 54/54/54 52/52/52
f 49/49/49 51/51/51 55/55/55
f 55/55/55 51/51/51 54/54/54
f 55/55/55 56/56/56 49/49/49
f 49/49/49 56/56/56 48/48/48
f 54/54/54 53/53/53 57/57/57
f 57/57/57 53/53/53 43/43/43
f 48/48/48 56/56/56 58/58/58
f 58/58/58 56/56/56 55/55/55
f 54/54/54 59/59/59 55/55/55
f 57/57/57 59/59/59 54/54/54
f 55/55/55 60/60/60 58/58/58
f 60/60/60 55/55/55 59/59/59
f 58/58/58 61/61/61 48/48/48
f 59/59/59 62/62/62 60/60/60
f 48/48/48 61/61/61 63/63/63
f 63/63/63 46/46/46 48/48/48
f 44/44/44 46/46/46 63/63/63
f 64/64/64 62/62/62 59/59/59
f 59/59/59 57/57/57 64/64/64
f 63/63/63 65/65/65 44/44/44
f 66/66/66 62/62/62 64/64/64
f 60/60/60 62/62/62 66/66/66
f 44/44/44 65/65/65 67/67/67
f 67/67/67 41/41/41 44/44/44
f 65/65/65 63/63/63 68/68/68
f 68/68/68 63/63/63 61/61/61
f 68/68/68 69/69/69 65/65/65
f 67/67/67 65/65/65 69/69/69
f 61/61/61 70/70/70 68/68/68
f 69/69/69 68/68/68 71/71/71
f 71/71/71 68/68/68 70/70/70
f 72/72/72 70/70/70 61/61/61
f 61/61/61 58/58/58 72/72/72
f 72/72/72 58/58/58 60/60/60
f 60/60/60 73/73/73 72/72/72
f 66/66/66 73/73/73 60/60/60
f 70/70/70 72/72/72 74/74/74
f 74/74/74 72/72/72 73/73/73
f 74/74/74 75/75/75 70/70/70
f 70/70/70 75/75/75 71/71/71
f 73/73/73 76/76/76 74/74/74
f 75/75/75 74/74/74 77/77/77
f 77/77/77 74/74/74 76/76/76
f 73/73/73 66/66/66 78/78/78
f 78/78/78 76/76/76 73/73/73
f 78/78/78 66/66/66 79/79/79
f 64/64/64 79/79/79 66/66/66
f 76/76/76 78/78/78 80/80/80
f 79/79/79 81/81/81 78/78/78
f 80/80/80 78/78/78 81/81/81
f 82/82/82 79/79/79 64/64/64
f 83/83/83 81/81/81 79/79/79
f 79/79/79 82/82/82 83/83/83
f 64/64/64 84/84/84 82/82/82
f 84/84/84 64/64/64 57/57/57
f 83/83/83 82/82/82 85/85/85
f 57/57/57 86/86/86 84/84/84
f 43/43/43 86/86/86 57/57/57
f 82/82/82 84/84/84 87/87/87
f 87/87/87 85/85/85 82/82/82
f 84/84/84 86/86/86 88/88/88
f 88/88/88 86/86/86 43/43/43
f 88/88/88 87/87/87 84/84/84
f 43/43/43 40/40/40 88/88/88
f 41/41/41 88/88/88 40/40/40
f 87/87/87 88/88/88 41/41/41
f 41/41/41 67/67/67 87/87/87
f 85/85/85 87/87/87 67/67/67
f 67/67/67 89/89/89 85/85/85
f 69/69/69 89/89/89 67/67/67
f 90/90/90 85/85/85 89/89/89
f 85/85/85 90/90/90 83/83/83
f 89/89/89 69/69/69 91/91/91
f 71/71/71 91/91/91 69/69/69
f 89/89/89 92/92/92 90/90/90
f 91/91/91 92/92/92 89/89/89
f 93/93/93 83/83/83 90/90/90
f 81/81/81 83/83/83 93/93/93
f 94/94/94 90/90/90 92/92/92
f 90/90/90 94/94/94 93/93/93
f 93/93/93 95/95/95 81/81/81
f 81/81/81 95/95/95 80/80/80
f 96/96/96 93/93/93 94/94/94
f 95/95/95 93/93/93 96/96/96
f 97/97/97 80/80/80 95/95/95
f 96/96/96 98/98/98 95/95/95
f 95/95/95 98/98/98 97/97/97
f 94/94/94 99/99/99 96/96/96
f 100/100/100 80/80/80 97/97/97
f 80/80/80 100/100/100 76/76/76
f 76/76/76 100/100/100 77/77/77
f 101/101/101 96/96/96 99/99/99
f 98/98/98 96/96/96 101/101/101
f 99/99/99 94/94/94 102/102/102
f 92/92/92 102/102/102 94/94/94
f 99/99/99 103/103/103 101/101/101
f 102/102/102 103/103/103 99/99/99
f 101/101/101 104/104/104 98/98/98
f 105/105/105 101/101/101 103/103/103
f 104/104/104 101/101/101 105/105/105
f 98/98/98 104/104/104 106/106/106
f 106/106/106 97/97/97 98/98/98
f 97/97/97 106/106/106 100/100/100
f 106/106/106 104/104/104 107/107/107
f 105/105/105 107/107/107 104/104/104
f 108/108/108 100/100/100 106/106/106
f 107/107/107 108/108/108 106/106/106
f 103/103/103 109/109/109 105/105/105
f 103/103/103 102/102/102 109/109/109
f 107/107/107 105/105/105 110/110/110
f 110/110/110 105/105/105 109/109/109
f 108/108/108 107/107/107 111/111/111
f 110/110/110 111/111/111 107/107/107
f 111/111/111 112/112/112 108/108/108
f 112/112/112 100/100/100 108/108/108
f 112/112/112 111/111/111 113/113/113
f 113/113/113 111/111/111 110/110/110
f 100/100/100 112/112/112 114/114/114
f 113/113/113 114/114/114 112/112/112
f 114/114/114 77/77/77 100/100/100
f 115/115/115 77/77/77 114/114/114
f 114/114/114 113/113/113 115/115/115
f 77/77/77 115/115/115 75/75/75
f 115/115/115 113/113/113 116/116/116
f 110/110/110 116/116/116 113/113/113
f 75/75/75 115/115/115 117/117/117
f 116/116/116 117/117/117 115/115/115
f 117/117/117 71/71/71 75/75/75
f 91/91/91 71/71/71 117/117/117
f 117/117/117 118/118/118 91/91/91
f 118/118/118 117/117/117 116/116/116
f 92/92/92 91/91/91 118/118/118
f 118/118/118 102/102/102 92/92/92
f 116/116/116 119/119/119 118/118/118
f 102/102/102 118/118/118 119/119/119
f 119/119/119 116/116/116 110/110/110
f 119/119/119 120/120/120 102/102/102
f 110/110/110 120/120/120 119/119/119
f 109/109/109 102/102/102 120/120/120
f 109/109/109 120/120/120 110/110/110
