<svg xmlns="http://www.w3.org/2000/svg" viewBox="0 0 310 220"><g fill="none" stroke="#f6f4f9" stroke-width="12" stroke-linecap="round" stroke-linejoin="round"><path d="M35 151L20 58l63 40 59-76 39 75 90-52-34 116-202-10z"/><path d="M36 173q108 8 202-1M60 196q96-10 160-2"/></g><g fill="#bb3ce9"><path d="M13 50l22-21 5 30zM269 39l27-13-13 28zM141 4l9-4 8 19-11 7z"/><circle cx="19" cy="114" r="4"/><circle cx="287" cy="126" r="5"/></g><path d="M41 178v23q3 16 11 0v-20M224 179v29q5 15 12-1v-26" fill="#aa2cdf"/></svg>